<svg width="45" height="45" viewBox="0 0 45 45" fill="none" xmlns="http://www.w3.org/2000/svg">
<rect width="45" height="45" rx="10" fill="#0984E3"/>
<path d="M23 12.5C25.717 12.5 26.056 12.51 27.122 12.56C28.187 12.61 28.912 12.777 29.55 13.025C30.21 13.279 30.766 13.623 31.322 14.178C31.8305 14.6779 32.224 15.2826 32.475 15.95C32.722 16.587 32.89 17.313 32.94 18.378C32.987 19.444 33 19.783 33 22.5C33 25.217 32.99 25.556 32.94 26.622C32.89 27.687 32.722 28.412 32.475 29.05C32.2247 29.7178 31.8311 30.3226 31.322 30.822C30.822 31.3303 30.2173 31.7238 29.55 31.975C28.913 32.222 28.187 32.39 27.122 32.44C26.056 32.487 25.717 32.5 23 32.5C20.283 32.5 19.944 32.49 18.878 32.44C17.813 32.39 17.088 32.222 16.45 31.975C15.7823 31.7245 15.1775 31.3309 14.678 30.822C14.1694 30.3222 13.7759 29.7175 13.525 29.05C13.277 28.413 13.11 27.687 13.06 26.622C13.013 25.556 13 25.217 13 22.5C13 19.783 13.01 19.444 13.06 18.378C13.11 17.312 13.277 16.588 13.525 15.95C13.7752 15.2822 14.1688 14.6773 14.678 14.178C15.1777 13.6692 15.7824 13.2757 16.45 13.025C17.088 12.777 17.812 12.61 18.878 12.56C19.944 12.513 20.283 12.5 23 12.5ZM23 17.5C21.6739 17.5 20.4021 18.0268 19.4645 18.9645C18.5268 19.9021 18 21.1739 18 22.5C18 23.8261 18.5268 25.0979 19.4645 26.0355C20.4021 26.9732 21.6739 27.5 23 27.5C24.3261 27.5 25.5979 26.9732 26.5355 26.0355C27.4732 25.0979 28 23.8261 28 22.5C28 21.1739 27.4732 19.9021 26.5355 18.9645C25.5979 18.0268 24.3261 17.5 23 17.5ZM29.5 17.25C29.5 16.9185 29.3683 16.6005 29.1339 16.3661C28.8995 16.1317 28.5815 16 28.25 16C27.9185 16 27.6005 16.1317 27.3661 16.3661C27.1317 16.6005 27 16.9185 27 17.25C27 17.5815 27.1317 17.8995 27.3661 18.1339C27.6005 18.3683 27.9185 18.5 28.25 18.5C28.5815 18.5 28.8995 18.3683 29.1339 18.1339C29.3683 17.8995 29.5 17.5815 29.5 17.25ZM23 19.5C23.7956 19.5 24.5587 19.8161 25.1213 20.3787C25.6839 20.9413 26 21.7044 26 22.5C26 23.2956 25.6839 24.0587 25.1213 24.6213C24.5587 25.1839 23.7956 25.5 23 25.5C22.2044 25.5 21.4413 25.1839 20.8787 24.6213C20.3161 24.0587 20 23.2956 20 22.5C20 21.7044 20.3161 20.9413 20.8787 20.3787C21.4413 19.8161 22.2044 19.5 23 19.5Z" fill="white"/>
</svg>
