<svg width="45" height="45" viewBox="0 0 45 45" fill="none" xmlns="http://www.w3.org/2000/svg">
<rect width="45" height="45" rx="10" fill="#0984E3"/>
<path d="M24.1111 33H19.6667V19.6667H24.1111V21.8889C25.0584 20.6836 26.4951 19.9651 28.0278 19.93C30.784 19.9453 33.008 22.1882 33 24.9444V33H28.5556V25.5C28.3778 24.2584 27.3131 23.3373 26.0589 23.34C25.5103 23.3573 24.9924 23.5976 24.6249 24.0051C24.2573 24.4128 24.0718 24.9526 24.1111 25.5V33ZM17.4444 33H13V19.6667H17.4444V33ZM15.2222 17.4444C13.9949 17.4444 13 16.4495 13 15.2222C13 13.9949 13.9949 13 15.2222 13C16.4495 13 17.4444 13.9949 17.4444 15.2222C17.4444 15.8116 17.2103 16.3768 16.7936 16.7936C16.3768 17.2103 15.8116 17.4444 15.2222 17.4444Z" fill="white"/>
</svg>
