<svg width="45" height="45" viewBox="0 0 45 45" fill="none" xmlns="http://www.w3.org/2000/svg">
<rect width="45" height="45" rx="10" fill="#0984E3"/>
<path d="M34.6014 15.6208L31.9656 16.0602L33.7228 13.8636L30.6476 14.7422C26.6938 10.3491 20.5435 15.1815 22.3007 19.1353C15.2717 19.1353 11.7572 13.8636 11.7572 13.8636C11.7572 13.8636 9.12138 17.8174 13.5145 20.8926L10.8786 20.014C10.8786 22.6498 12.6359 24.4071 15.711 25.2857H12.6359C14.3931 28.8002 17.4683 28.8002 17.4683 28.8002C17.4683 28.8002 14.8324 30.9967 10 30.9967C24.4973 38.0257 33.2835 24.8464 31.9656 17.8174L34.6014 15.6208Z" fill="white"/>
</svg>
