<svg width="24" height="24" viewBox="0 0 24 24" fill="none" xmlns="http://www.w3.org/2000/svg">
<path d="M18.6231 1.99181C16.7249 0.733114 14.4481 0 11.9999 0C9.55177 0 7.2749 0.733114 5.37671 1.99181C3.68751 3.11187 2.29848 4.64814 1.35555 6.45452C0.489663 8.11317 0 9.99934 0 12.0001C0 14.0008 0.489663 15.887 1.35555 17.5456C3.35809 21.3815 7.37323 24 11.9999 24C18.6274 24 23.9998 18.6274 23.9998 12.0001C23.9998 7.8208 21.8634 4.14044 18.6231 1.99181Z" fill="#E71B24"/>
<path d="M6.57601 4.28369L7.275 6.40112L9.50473 6.41152L7.70697 7.73051L8.38613 9.85444L6.57601 8.55203L4.76606 9.85444L5.44522 7.73051L3.64746 6.41152L5.87719 6.40112L6.57601 4.28369Z" fill="#F7F700"/>
<path d="M12.6928 8.8833L12.8838 9.46186L13.4932 9.46479L13.0019 9.82509L13.1875 10.4056L12.6928 10.0497L12.1983 10.4056L12.3839 9.82509L11.8926 9.46479L12.5019 9.46186L12.6928 8.8833Z" fill="#F7F700"/>
<path d="M12.1547 5.61907L12.699 5.89324L13.1319 5.46436L13.0393 6.06664L13.581 6.34568L12.9795 6.44384L12.8815 7.04532L12.6023 6.50365L12 6.59612L12.4289 6.16334L12.1547 5.61907Z" fill="#F7F700"/>
<path d="M10.9101 10.9267L10.636 11.471L11.0649 11.9037L10.4626 11.8113L10.1835 12.3529L10.0854 11.7515L9.48389 11.6535L10.0256 11.3743L9.93308 10.772L10.3659 11.2009L10.9101 10.9267Z" fill="#F7F700"/>
<path d="M9.63876 3.67181L10.1829 3.94581L10.6158 3.51709L10.5232 4.11921L11.0649 4.39842L10.4635 4.49658L10.3654 5.09789L10.0862 4.55622L9.48389 4.64886L9.91277 4.21591L9.63876 3.67181Z" fill="#F7F700"/>
</svg>
