<svg xmlns="http://www.w3.org/2000/svg" width="18" height="18" viewBox="0 0 18 18"><path d="M28.48,19.48a9,9,0,1,1-6.364,2.636A8.973,8.973,0,0,1,28.48,19.48Z" transform="translate(-19.48 -19.48)" fill="#fff"/><path d="M106.55,146.315l1.517-2.275.379.253-1.517,2.275Zm.569.379,1.517-2.275.379.253-1.517,2.275Zm.569.379L109.2,144.8l.38.253-1.517,2.275Zm7.2,4.8,1.517-2.275.379.253-1.516,2.274-.38-.252Zm.569.379,1.516-2.275.379.253-1.516,2.274Zm.569.379,1.516-2.275.379.253-1.516,2.275-.379-.253Z" transform="translate(-103.237 -139.3)"/><path d="M339.156,314.25l1.9,1.264-.127.189-1.9-1.263Z" transform="translate(-326.871 -303.033)" fill="#fff"/><path d="M196.23,189.65a2.734,2.734,0,1,1,4.549,3.033Z" transform="translate(-189.504 -182.004)" fill="#cd2e3a"/><path d="M184.617,220.43a2.734,2.734,0,1,0,4.549,3.033,1.367,1.367,0,1,0-2.275-1.516Z" transform="translate(-177.892 -212.783)" fill="#0047a0"/><path d="M192.312,204.657a1.367,1.367,0,1,0,.379,1.9A1.366,1.366,0,0,0,192.312,204.657Z" transform="translate(-183.691 -197.389)" fill="#cd2e3a"/><path d="M108.067,152.887l-1.517-2.275.379-.253,1.517,2.275Zm.569-.38-1.517-2.274.379-.253,1.517,2.275Zm.568-.379-1.516-2.274.379-.253,1.517,2.275Zm7.2-4.8-1.517-2.275.38-.253,1.516,2.275Zm.568-.379-1.516-2.275.379-.253,1.516,2.275Zm.569-.379-1.516-2.275.379-.253,1.516,2.275Z" transform="translate(-103.237 -139.3)"/><path d="M137.29,176.089l.568-.379.126.19-.569.379Zm7.677-5.117.664-.442.126.188-.664.442Zm1.232-.822.569-.38.126.19-.569.379Z" transform="translate(-132.807 -164.051)" fill="#fff"/></svg>