<svg width="64" height="74" viewBox="0 0 64 74" fill="none" xmlns="http://www.w3.org/2000/svg">
<g id="Group 41899" filter="url(#filter0_d_2316_2936)">
<path id="Rectangle 11953" d="M19.1495 56.0904C17.8512 56.5361 16.5 55.5714 16.5 54.1987L16.5 39.9268L41.5 39.9268L41.5 54.1987C41.5 55.5714 40.1488 56.5361 38.8505 56.0904L29 52.7084L19.1495 56.0904Z" fill="url(#paint0_linear_2316_2936)"/>
<g id="Ellipse 989" filter="url(#filter1_i_2316_2936)">
<ellipse cx="29" cy="26.5122" rx="20" ry="19.5122" fill="url(#paint1_linear_2316_2936)"/>
</g>
<path id="Ellipse 990" d="M44.0807 26.5126C44.0807 34.5665 37.3745 41.1793 28.9974 41.1793C20.6203 41.1793 13.9141 34.5665 13.9141 26.5126C13.9141 18.4587 20.6203 11.8459 28.9974 11.8459C37.3745 11.8459 44.0807 18.4587 44.0807 26.5126Z" stroke="#FB9305" stroke-width="4"/>
<g id="Vector" filter="url(#filter2_d_2316_2936)">
<path d="M26.7225 20.7267C27.736 18.909 28.2424 18.0002 29 18.0002C29.7576 18.0002 30.264 18.909 31.2775 20.7267L31.5399 21.1971C31.8279 21.7139 31.9719 21.9723 32.1959 22.1427C32.4199 22.3131 32.6999 22.3763 33.2599 22.5027L33.7687 22.6179C35.7366 23.0635 36.7198 23.2859 36.9542 24.0387C37.1878 24.7907 36.5174 25.5755 35.1759 27.1443L34.8287 27.5499C34.4479 27.9955 34.2567 28.2187 34.1711 28.4939C34.0855 28.7699 34.1143 29.0675 34.1719 29.6619L34.2247 30.2035C34.4271 32.2971 34.5287 33.3435 33.9159 33.8083C33.3031 34.2739 32.3815 33.8491 30.54 33.0011L30.0624 32.7819C29.5392 32.5403 29.2776 32.4203 29 32.4203C28.7224 32.4203 28.4608 32.5403 27.9368 32.7819L27.4608 33.0011C25.6185 33.8491 24.6969 34.2731 24.0849 33.8091C23.4713 33.3435 23.5729 32.2971 23.7753 30.2035L23.8281 29.6627C23.8857 29.0675 23.9145 28.7699 23.8281 28.4947C23.7433 28.2187 23.5521 27.9955 23.1713 27.5507L22.8241 27.1443C21.4826 25.5763 20.8122 24.7915 21.0458 24.0387C21.2802 23.2859 22.2642 23.0627 24.2321 22.6179L24.7409 22.5027C25.3001 22.3763 25.5793 22.3131 25.8041 22.1427C26.0281 21.9723 26.1721 21.7139 26.4601 21.1971L26.7225 20.7267Z" fill="white"/>
</g>
</g>
<defs>
<filter id="filter0_d_2316_2936" x="0" y="0" width="64" height="73.2004" filterUnits="userSpaceOnUse" color-interpolation-filters="sRGB">
<feFlood flood-opacity="0" result="BackgroundImageFix"/>
<feColorMatrix in="SourceAlpha" type="matrix" values="0 0 0 0 0 0 0 0 0 0 0 0 0 0 0 0 0 0 127 0" result="hardAlpha"/>
<feOffset dx="3" dy="5"/>
<feGaussianBlur stdDeviation="6"/>
<feComposite in2="hardAlpha" operator="out"/>
<feColorMatrix type="matrix" values="0 0 0 0 0.462745 0 0 0 0 0.188235 0 0 0 0 0.0352941 0 0 0 0.1 0"/>
<feBlend mode="normal" in2="BackgroundImageFix" result="effect1_dropShadow_2316_2936"/>
<feBlend mode="normal" in="SourceGraphic" in2="effect1_dropShadow_2316_2936" result="shape"/>
</filter>
<filter id="filter1_i_2316_2936" x="9" y="7" width="40" height="41.0244" filterUnits="userSpaceOnUse" color-interpolation-filters="sRGB">
<feFlood flood-opacity="0" result="BackgroundImageFix"/>
<feBlend mode="normal" in="SourceGraphic" in2="BackgroundImageFix" result="shape"/>
<feColorMatrix in="SourceAlpha" type="matrix" values="0 0 0 0 0 0 0 0 0 0 0 0 0 0 0 0 0 0 127 0" result="hardAlpha"/>
<feOffset dy="3"/>
<feGaussianBlur stdDeviation="1"/>
<feComposite in2="hardAlpha" operator="arithmetic" k2="-1" k3="1"/>
<feColorMatrix type="matrix" values="0 0 0 0 1 0 0 0 0 1 0 0 0 0 1 0 0 0 0.3 0"/>
<feBlend mode="normal" in2="shape" result="effect1_innerShadow_2316_2936"/>
</filter>
<filter id="filter2_d_2316_2936" x="20" y="18.0002" width="20" height="21" filterUnits="userSpaceOnUse" color-interpolation-filters="sRGB">
<feFlood flood-opacity="0" result="BackgroundImageFix"/>
<feColorMatrix in="SourceAlpha" type="matrix" values="0 0 0 0 0 0 0 0 0 0 0 0 0 0 0 0 0 0 127 0" result="hardAlpha"/>
<feOffset dx="1" dy="3"/>
<feGaussianBlur stdDeviation="1"/>
<feComposite in2="hardAlpha" operator="out"/>
<feColorMatrix type="matrix" values="0 0 0 0 0.495833 0 0 0 0 0.0977205 0 0 0 0 0.0103299 0 0 0 0.1 0"/>
<feBlend mode="normal" in2="BackgroundImageFix" result="effect1_dropShadow_2316_2936"/>
<feBlend mode="normal" in="SourceGraphic" in2="effect1_dropShadow_2316_2936" result="shape"/>
</filter>
<linearGradient id="paint0_linear_2316_2936" x1="27.75" y1="57" x2="27.75" y2="39.9268" gradientUnits="userSpaceOnUse">
<stop stop-color="#EE1106"/>
<stop offset="0.46875" stop-color="#FF6960"/>
<stop offset="1" stop-color="#EE1106"/>
</linearGradient>
<linearGradient id="paint1_linear_2316_2936" x1="29" y1="7" x2="29" y2="46.0244" gradientUnits="userSpaceOnUse">
<stop stop-color="#FBE419"/>
<stop offset="1" stop-color="#FFA800"/>
</linearGradient>
</defs>
</svg>
