<svg width="49" height="66" viewBox="0 0 49 66" fill="none" xmlns="http://www.w3.org/2000/svg">
<path d="M8.98894 51.2736V14.7262L0 10.084V55.9156L8.98894 51.2736Z" fill="#EF39C0"/>
<path d="M14.3367 56.0947L10.063 53L1 57.6422L11.4632 65.0842L14.3367 56.0947Z" fill="#EF39C0"/>
<path d="M35.19 65.9895L32.0316 57H16.1584L13 65.9895H35.19Z" fill="#EF39C0"/>
<path d="M36.8737 1L34 9.98947L38.2737 13.0842L47.3367 8.44197L36.8737 1Z" fill="#EF39C0"/>
<path d="M13 0L16.1584 8.98947H32.0316L35.19 0H13Z" fill="#EF39C0"/>
<path d="M47.3367 57.6422L38.2737 53L34 56.0947L36.8737 65.0842L47.3367 57.6422Z" fill="#EF39C0"/>
<path d="M37.2318 14.5789L32.1475 10.9683H16.0843L11 14.5789V51.421L16.0843 55.0317H32.1475L37.2318 51.421V14.5789Z" fill="#EF39C0"/>
<path d="M1 8.44197L10.063 13.0842L14.3367 9.98947L11.463 1L1 8.44197Z" fill="#EF39C0"/>
<path d="M48.1677 10.084L39.1787 14.7262V51.2736L48.1677 55.9158V10.084Z" fill="#EF39C0"/>
</svg>
