<svg width="442" height="377" viewBox="0 0 442 377" fill="none" xmlns="http://www.w3.org/2000/svg">
<path d="M429.341 81.5025C428.79 75.9349 425.587 70.948 422.033 66.7944C418.288 62.4265 413.823 57.401 408.577 54.8733C404.105 52.6453 401.086 58.3163 404.05 61.6326C407.405 65.4746 411.862 68.4915 415.353 72.3326C418.845 76.1738 421.891 80.2704 426.062 83.1367C426.362 83.3804 426.726 83.5326 427.11 83.575C427.494 83.6174 427.882 83.5483 428.228 83.3759C428.574 83.2035 428.863 82.9352 429.06 82.6029C429.257 82.2707 429.355 81.8886 429.341 81.5025Z" fill="#FFC933"/>
<path d="M437.634 69.7603C437.083 64.1927 433.881 59.2058 430.327 55.0522C426.582 50.6843 422.117 45.6588 416.87 43.1311C412.398 40.9032 409.379 46.5741 412.344 49.8904C415.699 53.7324 420.155 56.7493 423.647 60.5904C427.139 64.4316 430.185 68.5282 434.356 71.3945C434.656 71.6382 435.02 71.7904 435.404 71.8328C435.788 71.8752 436.176 71.8061 436.522 71.6337C436.868 71.4613 437.156 71.193 437.354 70.8607C437.551 70.5285 437.648 70.1464 437.634 69.7603Z" fill="#FFC933"/>
<g opacity="0.4" filter="url(#filter0_d_869_1376)">
<rect x="71" y="294" width="321" height="42" rx="10.2544" fill="white"/>
</g>
<rect x="59" y="84.1406" width="344.537" height="234.507" rx="10.2544" fill="white"/>
<path d="M6.52227e-05 185L8.53025 224.284L26.5046 211.56L6.52227e-05 185Z" fill="#0984E3"/>
<path d="M5.48584e-06 185L33.5615 208.387L50.0691 204.432L5.48584e-06 185Z" fill="#0984E3"/>
<path d="M1.2309e-05 185L26.5046 211.56L31.0597 223.001L33.5615 208.387L1.2309e-05 185Z" fill="white"/>
<path d="M1.2309e-05 185L26.5046 211.56L31.0597 223.001L33.5615 208.387L1.2309e-05 185Z" fill="#74B9FF"/>
<path d="M135.04 346.155C135.032 346.155 135.024 346.155 135.016 346.154C134.597 346.139 134.173 346.121 133.754 346.099C131.915 346.003 130.06 345.832 128.242 345.59C128.155 345.578 128.071 345.55 127.995 345.507C127.919 345.463 127.853 345.406 127.8 345.337C127.746 345.268 127.707 345.19 127.685 345.107C127.663 345.024 127.657 344.937 127.669 344.851C127.681 344.766 127.71 344.683 127.754 344.609C127.798 344.534 127.857 344.469 127.926 344.417C127.996 344.365 128.076 344.327 128.161 344.305C128.246 344.283 128.334 344.277 128.421 344.289C130.204 344.526 132.022 344.694 133.825 344.788C134.236 344.81 134.653 344.828 135.064 344.843C135.239 344.849 135.405 344.922 135.525 345.047C135.645 345.172 135.711 345.338 135.708 345.51C135.705 345.682 135.633 345.846 135.508 345.966C135.383 346.087 135.215 346.155 135.04 346.155ZM144.012 345.973C143.839 345.973 143.673 345.907 143.549 345.789C143.425 345.671 143.352 345.511 143.345 345.341C143.339 345.171 143.4 345.006 143.515 344.879C143.63 344.753 143.791 344.675 143.963 344.663C146.126 344.504 148.361 344.258 150.607 343.932C150.782 343.907 150.96 343.951 151.103 344.055C151.245 344.159 151.339 344.314 151.365 344.486C151.391 344.658 151.346 344.833 151.24 344.973C151.135 345.113 150.977 345.205 150.802 345.231C148.524 345.561 146.257 345.81 144.063 345.971C144.046 345.973 144.029 345.973 144.012 345.973ZM119.543 343.817C119.481 343.817 119.421 343.808 119.362 343.792C117.175 343.191 115.025 342.471 112.92 341.635C112.839 341.602 112.765 341.555 112.702 341.494C112.64 341.434 112.59 341.362 112.556 341.282C112.487 341.122 112.485 340.941 112.552 340.78C112.619 340.619 112.748 340.49 112.911 340.422C113.074 340.354 113.258 340.353 113.422 340.418C115.481 341.236 117.584 341.941 119.722 342.528C119.878 342.571 120.012 342.668 120.101 342.8C120.189 342.933 120.226 343.092 120.204 343.249C120.182 343.407 120.103 343.55 119.981 343.655C119.86 343.759 119.704 343.816 119.543 343.817ZM159.522 343.589C159.358 343.589 159.2 343.529 159.078 343.422C158.955 343.314 158.878 343.167 158.859 343.006C158.841 342.846 158.883 342.685 158.977 342.553C159.072 342.422 159.213 342.329 159.373 342.293C161.471 341.817 163.655 341.264 165.862 340.65C166.032 340.603 166.215 340.624 166.369 340.709C166.524 340.794 166.638 340.935 166.686 341.103C166.734 341.27 166.713 341.449 166.627 341.601C166.541 341.753 166.396 341.865 166.226 341.913C163.998 342.533 161.793 343.091 159.673 343.572C159.624 343.583 159.573 343.589 159.522 343.589ZM105.158 337.723C105.035 337.723 104.914 337.689 104.81 337.626C102.869 336.457 101.012 335.159 99.2531 333.74C99.1853 333.685 99.1292 333.618 99.0879 333.542C99.0466 333.466 99.021 333.382 99.0125 333.296C99.004 333.211 99.0128 333.124 99.0384 333.041C99.064 332.959 99.1059 332.882 99.1617 332.816C99.2175 332.749 99.2861 332.694 99.3636 332.654C99.4411 332.613 99.5259 332.588 99.6133 332.58C99.7007 332.571 99.7888 332.58 99.8727 332.605C99.9567 332.631 100.035 332.672 100.102 332.727C101.814 334.107 103.62 335.371 105.508 336.507C105.632 336.582 105.728 336.695 105.781 336.828C105.834 336.961 105.841 337.108 105.802 337.245C105.762 337.383 105.678 337.504 105.562 337.59C105.446 337.676 105.304 337.723 105.158 337.723ZM93.3616 327.642C93.2616 327.642 93.1628 327.62 93.0725 327.578C92.9823 327.536 92.903 327.474 92.8404 327.397C91.4117 325.645 90.1391 323.776 89.0367 321.81C88.9943 321.735 88.9675 321.652 88.9577 321.566C88.948 321.48 88.9555 321.394 88.9798 321.311C89.0042 321.228 89.0449 321.151 89.0996 321.083C89.1544 321.016 89.2221 320.96 89.2989 320.918C89.3758 320.877 89.4602 320.85 89.5474 320.841C89.6345 320.831 89.7228 320.839 89.8071 320.862C89.8914 320.886 89.97 320.926 90.0386 320.98C90.1071 321.034 90.1642 321.1 90.2066 321.176C91.2718 323.076 92.5014 324.882 93.882 326.575C93.9608 326.672 94.0103 326.788 94.0247 326.911C94.0392 327.034 94.018 327.158 93.9636 327.27C93.9092 327.381 93.8238 327.475 93.7173 327.541C93.6108 327.607 93.4875 327.642 93.3616 327.642ZM86.1868 314.018C86.0421 314.017 85.9015 313.971 85.7859 313.886C85.6703 313.801 85.586 313.681 85.5456 313.544C84.907 311.39 84.4555 309.186 84.196 306.956C84.176 306.783 84.2268 306.61 84.3372 306.474C84.4476 306.338 84.6085 306.25 84.7845 306.23C84.9606 306.211 85.1373 306.261 85.2759 306.369C85.4145 306.478 85.5036 306.636 85.5235 306.809C85.7745 308.964 86.211 311.095 86.8286 313.178C86.8574 313.276 86.8627 313.379 86.844 313.479C86.8254 313.579 86.7832 313.674 86.721 313.755C86.6587 313.837 86.5781 313.903 86.4854 313.948C86.3927 313.994 86.2904 314.017 86.1868 314.018ZM84.9357 298.74C84.8404 298.74 84.7462 298.72 84.6594 298.682C84.5726 298.643 84.4952 298.586 84.4324 298.516C84.3697 298.445 84.323 298.362 84.2955 298.273C84.2679 298.183 84.2603 298.089 84.273 297.996C84.5777 295.763 85.1185 293.567 85.8865 291.444C85.9461 291.28 86.0695 291.146 86.2297 291.072C86.3898 290.998 86.5735 290.989 86.7403 291.047C86.9071 291.106 87.0434 291.227 87.1192 291.384C87.195 291.542 87.2041 291.722 87.1444 291.886C86.4079 293.923 85.8892 296.03 85.5968 298.172C85.5751 298.329 85.4962 298.473 85.3747 298.578C85.2531 298.682 85.0972 298.74 84.9357 298.74ZM90.7334 284.573C90.61 284.573 90.489 284.539 90.3838 284.476C90.2787 284.412 90.1936 284.321 90.1379 284.213C90.0822 284.105 90.0581 283.984 90.0682 283.863C90.0784 283.742 90.1225 283.626 90.1955 283.528C91.5531 281.724 93.0691 280.041 94.726 278.497C94.7894 278.437 94.8641 278.39 94.9458 278.359C95.0276 278.328 95.1148 278.313 95.2026 278.314C95.2903 278.316 95.3768 278.335 95.4572 278.37C95.5375 278.404 95.6101 278.454 95.6708 278.517C95.7315 278.579 95.7791 278.652 95.8109 278.733C95.8428 278.813 95.8582 278.899 95.8562 278.985C95.8543 279.071 95.8351 279.156 95.7998 279.235C95.7644 279.314 95.7136 279.385 95.6502 279.445C94.0492 280.936 92.5843 282.563 91.2723 284.305C91.2103 284.388 91.1291 284.456 91.0355 284.503C90.9418 284.549 90.8383 284.573 90.7334 284.573ZM102.151 274.067C102.009 274.068 101.871 274.023 101.757 273.941C101.642 273.859 101.557 273.744 101.514 273.611C101.471 273.478 101.472 273.336 101.517 273.204C101.561 273.071 101.648 272.957 101.763 272.876C103.348 271.77 105.083 270.63 107.389 269.18C107.463 269.133 107.545 269.101 107.631 269.086C107.718 269.071 107.806 269.073 107.892 269.091C107.978 269.11 108.059 269.145 108.131 269.194C108.203 269.243 108.264 269.306 108.312 269.378C108.359 269.451 108.391 269.532 108.407 269.617C108.422 269.702 108.42 269.789 108.401 269.873C108.383 269.957 108.347 270.037 108.297 270.107C108.247 270.178 108.183 270.238 108.109 270.285C105.822 271.724 104.104 272.853 102.537 273.946C102.425 274.025 102.289 274.068 102.151 274.067ZM115.326 265.647C115.182 265.647 115.042 265.602 114.927 265.517C114.811 265.433 114.727 265.314 114.685 265.178C114.644 265.043 114.649 264.898 114.698 264.765C114.748 264.632 114.84 264.519 114.96 264.441C117.127 263.052 118.876 261.864 120.467 260.702C120.537 260.651 120.617 260.613 120.702 260.592C120.787 260.571 120.876 260.567 120.963 260.58C121.049 260.592 121.133 260.621 121.208 260.665C121.283 260.71 121.349 260.768 121.401 260.837C121.454 260.906 121.492 260.985 121.513 261.069C121.535 261.152 121.539 261.239 121.526 261.324C121.514 261.409 121.484 261.491 121.439 261.565C121.394 261.639 121.334 261.704 121.264 261.755C119.651 262.934 117.88 264.136 115.691 265.54C115.582 265.61 115.456 265.647 115.326 265.647ZM127.655 256.132C127.524 256.132 127.396 256.094 127.286 256.023C127.177 255.952 127.091 255.85 127.04 255.731C126.989 255.612 126.975 255.481 126.999 255.355C127.023 255.228 127.085 255.111 127.177 255.018C127.804 254.385 128.407 253.735 128.969 253.088C129.825 252.104 130.62 251.071 131.352 249.995C131.401 249.923 131.463 249.862 131.536 249.814C131.609 249.766 131.691 249.732 131.777 249.715C131.863 249.698 131.951 249.698 132.038 249.715C132.124 249.732 132.205 249.765 132.278 249.812C132.352 249.86 132.414 249.922 132.463 249.993C132.512 250.065 132.546 250.145 132.563 250.23C132.581 250.314 132.581 250.401 132.564 250.486C132.547 250.57 132.513 250.651 132.464 250.722C131.703 251.842 130.876 252.916 129.986 253.939C129.405 254.608 128.782 255.279 128.134 255.934C128.072 255.997 127.998 256.047 127.915 256.081C127.833 256.115 127.745 256.132 127.655 256.132ZM135.59 243.017C135.488 243.017 135.388 242.995 135.297 242.951C135.206 242.908 135.127 242.844 135.064 242.766C135.001 242.688 134.958 242.597 134.936 242.5C134.915 242.403 134.916 242.302 134.94 242.205C135.14 241.403 135.288 240.59 135.383 239.77C135.531 238.474 135.529 237.166 135.377 235.87C135.367 235.784 135.374 235.698 135.398 235.615C135.422 235.532 135.462 235.454 135.517 235.387C135.571 235.319 135.639 235.263 135.715 235.221C135.792 235.179 135.877 235.152 135.964 235.142C136.051 235.132 136.139 235.139 136.224 235.163C136.308 235.187 136.387 235.226 136.456 235.28C136.525 235.334 136.582 235.4 136.625 235.475C136.667 235.551 136.694 235.634 136.704 235.719C136.868 237.114 136.87 238.522 136.711 239.917C136.609 240.793 136.451 241.661 136.238 242.516C136.202 242.659 136.119 242.786 136.002 242.877C135.884 242.968 135.739 243.017 135.59 243.017ZM70.6198 233.975C69.2086 233.975 67.7803 233.939 66.3742 233.869C66.1974 233.86 66.0317 233.782 65.9132 233.653C65.7947 233.524 65.7332 233.354 65.7422 233.18C65.7513 233.007 65.83 232.844 65.9613 232.727C66.0925 232.61 66.2655 232.55 66.4422 232.558C67.8257 232.628 69.2313 232.663 70.6198 232.663H70.6268C71.4527 232.663 72.2918 232.65 73.1211 232.626C73.2088 232.623 73.2961 232.638 73.3781 232.668C73.4601 232.699 73.5352 232.745 73.5991 232.804C73.663 232.863 73.7144 232.934 73.7504 233.012C73.7864 233.091 73.8062 233.176 73.8089 233.262C73.8115 233.348 73.7969 233.434 73.7657 233.514C73.7346 233.595 73.6877 233.669 73.6275 233.731C73.5674 233.794 73.4953 233.845 73.4153 233.88C73.3353 233.915 73.249 233.935 73.1613 233.938C72.3188 233.963 71.466 233.975 70.6268 233.975H70.6198ZM82.0843 233.195C81.9152 233.195 81.7525 233.132 81.629 233.018C81.5055 232.905 81.4303 232.75 81.4187 232.584C81.4071 232.418 81.4599 232.254 81.5664 232.126C81.6729 231.997 81.8253 231.912 81.9927 231.889C84.2048 231.585 86.4145 231.189 88.5608 230.71C88.6464 230.691 88.735 230.688 88.8215 230.703C88.9081 230.717 88.9909 230.748 89.0652 230.794C89.1395 230.84 89.2038 230.9 89.2546 230.971C89.3053 231.041 89.3414 231.12 89.3608 231.205C89.3803 231.289 89.3826 231.376 89.3678 231.461C89.353 231.546 89.3212 231.627 89.2744 231.7C89.2276 231.773 89.1665 231.836 89.0948 231.886C89.0231 231.936 88.9422 231.971 88.8565 231.99C86.6739 232.477 84.4267 232.88 82.1776 233.189C82.1467 233.193 82.1155 233.195 82.0843 233.195ZM57.4839 232.936C57.4475 232.936 57.4112 232.933 57.3753 232.927C55.128 232.566 52.8911 232.107 50.7269 231.564C50.6419 231.543 50.562 231.505 50.4918 231.453C50.4216 231.402 50.3624 231.337 50.3177 231.263C50.273 231.189 50.2435 231.107 50.2311 231.021C50.2186 230.936 50.2234 230.849 50.2451 230.766C50.2668 230.682 50.3051 230.604 50.3577 230.535C50.4103 230.466 50.4762 230.407 50.5517 230.364C50.6272 230.32 50.7107 230.291 50.7976 230.278C50.8844 230.266 50.9728 230.271 51.0578 230.292C53.1841 230.826 55.3822 231.277 57.591 231.632C57.7565 231.659 57.9058 231.745 58.0092 231.875C58.1125 232.005 58.1624 232.168 58.1489 232.332C58.1355 232.497 58.0596 232.65 57.9364 232.762C57.8131 232.874 57.6516 232.936 57.4839 232.936ZM97.3274 229.547C97.1701 229.547 97.0178 229.492 96.8974 229.393C96.777 229.293 96.6963 229.155 96.6693 229.003C96.6424 228.851 96.6711 228.694 96.7502 228.56C96.8294 228.427 96.954 228.325 97.1021 228.273C97.2338 228.226 97.3651 228.18 97.4961 228.133C99.2605 227.5 101.037 226.782 102.755 226.088L103.337 225.853C103.501 225.787 103.684 225.788 103.848 225.855C104.011 225.922 104.141 226.05 104.208 226.211C104.275 226.372 104.275 226.552 104.206 226.713C104.138 226.873 104.008 227.001 103.844 227.067L103.264 227.301C101.533 228.001 99.7439 228.724 97.9546 229.366C97.8211 229.414 97.6872 229.461 97.5527 229.508C97.4804 229.534 97.4042 229.547 97.3274 229.547ZM42.354 228.872C42.2697 228.872 42.1863 228.856 42.108 228.826C39.9986 228.005 37.9342 227.077 35.9233 226.045C35.8456 226.005 35.7767 225.95 35.7204 225.884C35.6642 225.818 35.6218 225.742 35.5956 225.659C35.5694 225.577 35.56 225.491 35.5679 225.405C35.5757 225.319 35.6007 225.235 35.6414 225.159C35.6821 225.083 35.7377 225.015 35.805 224.96C35.8724 224.905 35.9501 224.863 36.0338 224.837C36.1176 224.811 36.2056 224.802 36.293 224.81C36.3804 224.818 36.4653 224.842 36.5431 224.882C38.5125 225.893 40.5344 226.802 42.6003 227.605C42.7448 227.662 42.8648 227.766 42.9397 227.9C43.0145 228.033 43.0395 228.189 43.0103 228.339C42.9811 228.489 42.8996 228.624 42.7798 228.721C42.66 228.819 42.5094 228.872 42.354 228.872ZM132.744 228.367C132.644 228.367 132.544 228.345 132.454 228.302C132.363 228.26 132.284 228.197 132.221 228.12C131.73 227.515 131.182 226.955 130.586 226.449C129.559 225.586 128.406 224.88 127.165 224.355C127.085 224.321 127.012 224.271 126.951 224.209C126.89 224.147 126.842 224.074 126.81 223.994C126.778 223.913 126.762 223.828 126.763 223.741C126.765 223.655 126.784 223.57 126.819 223.491C126.854 223.412 126.905 223.34 126.968 223.281C127.031 223.221 127.106 223.174 127.187 223.142C127.269 223.111 127.356 223.095 127.444 223.097C127.532 223.099 127.618 223.117 127.699 223.152C129.062 223.73 130.329 224.506 131.458 225.454C132.117 226.014 132.722 226.632 133.266 227.301C133.344 227.398 133.393 227.514 133.407 227.637C133.421 227.76 133.4 227.884 133.346 227.995C133.291 228.107 133.206 228.201 133.099 228.266C132.993 228.332 132.87 228.367 132.744 228.367ZM112.024 224.102C111.863 224.102 111.707 224.044 111.585 223.94C111.464 223.836 111.384 223.692 111.362 223.535C111.34 223.378 111.377 223.218 111.465 223.086C111.554 222.953 111.688 222.857 111.843 222.814C112.632 222.596 113.411 222.406 114.159 222.249C115.627 221.939 117.118 221.748 118.617 221.677C118.704 221.673 118.792 221.686 118.875 221.716C118.957 221.745 119.033 221.79 119.098 221.848C119.163 221.906 119.215 221.976 119.252 222.054C119.29 222.132 119.311 222.217 119.315 222.303C119.319 222.389 119.306 222.475 119.276 222.556C119.246 222.637 119.2 222.711 119.141 222.775C119.082 222.839 119.011 222.89 118.932 222.927C118.852 222.964 118.766 222.985 118.679 222.988C117.252 223.056 115.834 223.238 114.438 223.532C113.717 223.684 112.966 223.867 112.205 224.077C112.146 224.094 112.085 224.102 112.024 224.102Z" fill="#C8DEED"/>
<path d="M59.615 113.037L59.615 94.9953C59.615 89.0003 64.4748 84.1405 70.4698 84.1405L394.152 84.1405C399.675 84.1405 404.152 88.6176 404.152 94.1405L404.152 113.037L59.615 113.037Z" fill="#0984E3"/>
<path d="M314.926 170.65V263.406C314.926 266.135 313.512 268.533 311.377 269.908C310.132 270.711 308.68 271.137 307.198 271.135H155.991C153.997 271.137 152.079 270.366 150.642 268.984C149.889 268.263 149.29 267.397 148.881 266.439C148.472 265.48 148.262 264.448 148.263 263.406V170.65C148.263 166.639 151.32 163.34 155.234 162.958C155.484 162.935 155.736 162.922 155.992 162.922H307.199C307.39 162.922 307.578 162.929 307.767 162.943C311.771 163.232 314.926 166.574 314.926 170.65Z" fill="#A1D1FF"/>
<path d="M253.806 218.691L288.21 178.054H173.463C173.463 178.054 195.502 206.559 203.581 217.28L150.643 268.983C152.08 270.366 153.997 271.137 155.991 271.134H307.199C308.738 271.134 310.173 270.684 311.377 269.907L253.806 218.691Z" fill="#95C6F4"/>
<path d="M307.767 162.942L242.446 221.052C234.271 228.322 221.865 228.034 214.038 220.39L155.233 162.957C155.483 162.934 155.735 162.921 155.991 162.921H307.199C307.389 162.921 307.578 162.929 307.767 162.942Z" fill="#B7DCFF"/>
<g filter="url(#filter1_d_869_1376)">
<path d="M104.688 78.4354L97.0613 119.184C96.9552 119.753 96.7079 120.286 96.342 120.734C95.9761 121.182 95.5035 121.531 94.9675 121.748C94.3544 121.999 93.6818 122.067 93.031 121.944L26.6044 109.511C25.7281 109.348 24.9491 108.852 24.4314 108.126C24.1597 107.748 23.9677 107.318 23.8668 106.863C23.766 106.409 23.7584 105.938 23.8447 105.48L31.4713 64.7316C31.64 63.8313 32.1593 63.0348 32.9151 62.5173C33.6709 61.9997 34.6013 61.8036 35.5017 61.9719L101.928 74.405C102.829 74.5737 103.625 75.093 104.143 75.8488C104.66 76.6046 104.856 77.535 104.688 78.4354Z" fill="#A1D1FF"/>
<path d="M73.8864 94.5141L92.3418 79.4906L41.9327 70.0557C41.9327 70.0557 49.2707 84.3906 51.9388 89.7646L24.4314 108.125C24.9491 108.851 25.7281 109.347 26.6044 109.51L93.031 121.943C93.6818 122.066 94.3544 121.998 94.9675 121.747L73.8864 94.5141Z" fill="#95C6F4"/>
<path d="M102.176 74.4603L68.7019 94.6174C64.5127 97.139 59.0865 95.9925 56.2766 91.9906L35.1655 61.9248C35.2773 61.9352 35.389 61.9502 35.5013 61.9709L101.928 74.4039C102.012 74.42 102.094 74.4391 102.176 74.4603Z" fill="#B7DCFF"/>
</g>
<g opacity="0.7" filter="url(#filter2_d_869_1376)">
<path d="M174.485 8.58067L184.08 35.4875C184.214 35.8629 184.252 36.266 184.19 36.6598C184.127 37.0536 183.967 37.4253 183.723 37.7408C183.445 38.1026 183.068 38.3764 182.638 38.5293L138.775 54.1717C138.197 54.3788 137.561 54.3535 137.001 54.1011C136.708 53.9701 136.445 53.7809 136.227 53.545C136.009 53.3092 135.841 53.0316 135.734 52.729L126.138 25.8222C125.926 25.2276 125.959 24.5732 126.23 24.0029C126.5 23.4326 126.986 22.993 127.58 22.7808L171.443 7.13842C171.738 7.03337 172.05 6.98735 172.362 7.00298C172.674 7.01861 172.98 7.09559 173.263 7.22952C173.545 7.36345 173.798 7.55171 174.008 7.78354C174.218 8.01538 174.38 8.28624 174.485 8.58067Z" fill="#A1D1FF"/>
<path d="M161.724 28.8398L167.5 13.4922L134.214 25.3628C134.214 25.3628 143.556 31.3519 147.009 33.626L137.001 54.1008C137.561 54.353 138.197 54.3783 138.775 54.1714L182.638 38.529C183.068 38.3765 183.445 38.1026 183.723 37.7406L161.724 28.8398Z" fill="#95C6F4"/>
<path d="M171.61 7.08496L158.673 30.6989C157.054 33.6536 153.426 34.8536 150.364 33.4455L127.365 22.869C127.435 22.8367 127.506 22.8067 127.58 22.7799L171.443 7.13756C171.498 7.11818 171.554 7.10065 171.61 7.08496Z" fill="#B7DCFF"/>
</g>
<circle cx="342.375" cy="99.2158" r="5" fill="white"/>
<circle cx="364.375" cy="99.2158" r="5" fill="white"/>
<circle cx="386.375" cy="99.2158" r="5" fill="white"/>
<defs>
<filter id="filter0_d_869_1376" x="36" y="264.72" width="391" height="112" filterUnits="userSpaceOnUse" color-interpolation-filters="sRGB">
<feFlood flood-opacity="0" result="BackgroundImageFix"/>
<feColorMatrix in="SourceAlpha" type="matrix" values="0 0 0 0 0 0 0 0 0 0 0 0 0 0 0 0 0 0 127 0" result="hardAlpha"/>
<feOffset dy="5.72045"/>
<feGaussianBlur stdDeviation="17.5"/>
<feColorMatrix type="matrix" values="0 0 0 0 0.0352941 0 0 0 0 0.517647 0 0 0 0 0.890196 0 0 0 0.25 0"/>
<feBlend mode="normal" in2="BackgroundImageFix" result="effect1_dropShadow_869_1376"/>
<feBlend mode="normal" in="SourceGraphic" in2="effect1_dropShadow_869_1376" result="shape"/>
</filter>
<filter id="filter1_d_869_1376" x="7.78516" y="54.9131" width="112.962" height="92.0908" filterUnits="userSpaceOnUse" color-interpolation-filters="sRGB">
<feFlood flood-opacity="0" result="BackgroundImageFix"/>
<feColorMatrix in="SourceAlpha" type="matrix" values="0 0 0 0 0 0 0 0 0 0 0 0 0 0 0 0 0 0 127 0" result="hardAlpha"/>
<feOffset dy="9"/>
<feGaussianBlur stdDeviation="8"/>
<feComposite in2="hardAlpha" operator="out"/>
<feColorMatrix type="matrix" values="0 0 0 0 0.0352941 0 0 0 0 0.517647 0 0 0 0 0.890196 0 0 0 0.2 0"/>
<feBlend mode="normal" in2="BackgroundImageFix" result="effect1_dropShadow_869_1376"/>
<feBlend mode="normal" in="SourceGraphic" in2="effect1_dropShadow_869_1376" result="shape"/>
</filter>
<filter id="filter2_d_869_1376" x="110" y="0" width="90.219" height="79.3105" filterUnits="userSpaceOnUse" color-interpolation-filters="sRGB">
<feFlood flood-opacity="0" result="BackgroundImageFix"/>
<feColorMatrix in="SourceAlpha" type="matrix" values="0 0 0 0 0 0 0 0 0 0 0 0 0 0 0 0 0 0 127 0" result="hardAlpha"/>
<feOffset dy="9"/>
<feGaussianBlur stdDeviation="8"/>
<feComposite in2="hardAlpha" operator="out"/>
<feColorMatrix type="matrix" values="0 0 0 0 0.0352941 0 0 0 0 0.517647 0 0 0 0 0.890196 0 0 0 0.2 0"/>
<feBlend mode="normal" in2="BackgroundImageFix" result="effect1_dropShadow_869_1376"/>
<feBlend mode="normal" in="SourceGraphic" in2="effect1_dropShadow_869_1376" result="shape"/>
</filter>
</defs>
</svg>
