<svg width="24" height="24" viewBox="0 0 24 24" fill="none" xmlns="http://www.w3.org/2000/svg">
<path d="M23.75 12C23.75 18.4893 18.4893 23.75 12 23.75C5.51065 23.75 0.25 18.4893 0.25 12C0.25 5.51065 5.51065 0.25 12 0.25C18.4893 0.25 23.75 5.51065 23.75 12Z" fill="url(#paint0_radial_2924_374)" stroke="#C25D00" stroke-width="0.5"/>
<path d="M12 18C16.9706 18 21 14.4183 21 10C21 5.58172 16.9706 2 12 2C7.02944 2 3 5.58172 3 10C3 14.4183 7.02944 18 12 18Z" fill="url(#paint1_radial_2924_374)"/>
<path d="M15.7461 12.3621C16.4958 12.3621 17.1036 11.5518 17.1036 10.5521C17.1036 9.55253 16.4958 8.74219 15.7461 8.74219C14.9964 8.74219 14.3887 9.55253 14.3887 10.5521C14.3887 11.5518 14.9964 12.3621 15.7461 12.3621Z" fill="#733F01"/>
<path d="M8.14458 12.3621C8.89428 12.3621 9.50204 11.5518 9.50204 10.5521C9.50204 9.55253 8.89428 8.74219 8.14458 8.74219C7.39487 8.74219 6.78711 9.55253 6.78711 10.5521C6.78711 11.5518 7.39487 12.3621 8.14458 12.3621Z" fill="#733F01"/>
<path d="M6.57031 19.276C6.82053 18.0119 7.45371 16.8555 8.38389 15.9637C9.35264 15.023 10.6498 14.4968 12.0002 14.4968C13.3505 14.4968 14.6477 15.023 15.6165 15.9637C16.5489 16.8537 17.1825 18.0109 17.43 19.276C16.8839 18.1896 16.1053 17.2367 15.1495 16.485C14.2413 15.7831 13.1263 15.4012 11.9785 15.399C10.8298 15.3963 9.71327 15.7786 8.80742 16.485C7.86204 17.236 7.09751 18.1898 6.57031 19.276Z" fill="#733F01"/>
<defs>
<radialGradient id="paint0_radial_2924_374" cx="0" cy="0" r="1" gradientUnits="userSpaceOnUse" gradientTransform="translate(12 11) rotate(90) scale(14.0909)">
<stop stop-color="#FFED4D"/>
<stop offset="0.680829" stop-color="#FFC839"/>
<stop offset="0.837821" stop-color="#F58D11"/>
<stop offset="1" stop-color="#C87415"/>
</radialGradient>
<radialGradient id="paint1_radial_2924_374" cx="0" cy="0" r="1" gradientUnits="userSpaceOnUse" gradientTransform="translate(12.0002 1) rotate(90) scale(18.5721 20.8972)">
<stop stop-color="#FFFBF4"/>
<stop offset="0.0609998" stop-color="#FFEBCA"/>
<stop offset="0.561" stop-color="#FFEE68" stop-opacity="0.8"/>
<stop offset="1" stop-color="#FAA623" stop-opacity="0"/>
</radialGradient>
</defs>
</svg>
