<svg width="24" height="24" viewBox="0 0 24 24" fill="none" xmlns="http://www.w3.org/2000/svg">
<path d="M23.75 12C23.75 18.4893 18.4893 23.75 12 23.75C5.51065 23.75 0.25 18.4893 0.25 12C0.25 5.51065 5.51065 0.25 12 0.25C18.4893 0.25 23.75 5.51065 23.75 12Z" fill="url(#paint0_radial_2924_401)" stroke="#C25D00" stroke-width="0.5"/>
<path d="M12 18C16.9706 18 21 14.4183 21 10C21 5.58172 16.9706 2 12 2C7.02944 2 3 5.58172 3 10C3 14.4183 7.02944 18 12 18Z" fill="url(#paint1_radial_2924_401)"/>
<path d="M6.20608 16.1858C6.03965 16.0303 5.76612 16.1845 5.87913 16.3822C6.27709 17.0785 6.8558 17.7118 7.58657 18.2424C8.75435 19.1013 10.3181 19.5818 11.9458 19.5818C13.5736 19.5818 15.1373 19.1013 16.3051 18.2424C17.0599 17.6967 17.6523 17.041 18.0503 16.3194C18.1593 16.1218 17.8903 15.9711 17.726 16.1257C16.0892 17.6667 13.6777 17.9422 11.9197 17.9454C10.1823 17.9486 7.81351 17.6872 6.20608 16.1858Z" fill="#733F01"/>
<path fill-rule="evenodd" clip-rule="evenodd" d="M1.15048 8.87981C1.3049 9.03358 2.07569 9.49554 2.22946 9.9575C2.38387 10.4188 2.6927 13.0355 3.61791 13.8056C4.57206 14.5983 8.17122 14.3036 8.86029 13.9601C10.4025 13.1912 10.5917 11.0448 10.8645 9.9575C11.0182 9.34177 11.9434 9.34177 11.9434 9.34177C11.9434 9.34177 12.8686 9.34177 13.0231 9.95685C13.2959 11.0448 13.4863 13.1912 15.0272 13.9594C15.717 14.3036 19.3161 14.599 20.2716 13.8063C21.1955 13.0361 21.5037 10.4195 21.6581 9.9575C21.8112 9.49618 22.5833 9.03422 22.737 8.88045C22.8921 8.72668 22.8921 8.11095 22.737 7.95654C22.4289 7.64899 18.7905 7.37491 14.8728 7.80276C14.0911 7.88834 13.7938 8.11031 11.9428 8.11031C10.093 8.11031 9.7945 7.88769 9.01342 7.80276C5.09836 7.37426 1.45931 7.64835 1.15048 7.95589C0.996713 8.10966 0.996713 8.72604 1.15048 8.87981Z" fill="black"/>
<path d="M3.18049 10.029L4.10339 12.49C4.23165 12.8321 4.51984 13.0892 4.87422 13.1778C5.93816 13.4438 7.04789 13.4702 8.12328 13.2551L8.40778 13.1982C8.90214 13.0993 9.29529 12.7245 9.41756 12.2354L9.50673 11.8787C9.67679 11.1984 9.76278 10.4999 9.76278 9.79873V9.65556C9.76278 9.39135 9.60193 9.15376 9.35662 9.05564C7.83413 8.44664 6.18202 8.23388 4.55491 8.43727L4.10922 8.49298C3.37608 8.58463 2.92106 9.33715 3.18049 10.029Z" fill="url(#paint2_linear_2924_401)"/>
<path d="M20.7082 10.029L19.7853 12.49C19.657 12.8321 19.3688 13.0892 19.0144 13.1778C17.9505 13.4438 16.8408 13.4702 15.7654 13.2551L15.4809 13.1982C14.9865 13.0993 14.5934 12.7245 14.4711 12.2354L14.3819 11.8787C14.2119 11.1984 14.1259 10.4999 14.1259 9.79873V9.65556C14.1259 9.39135 14.2867 9.15376 14.5321 9.05564C16.0545 8.44664 17.7067 8.23388 19.3338 8.43727L19.7794 8.49298C20.5126 8.58463 20.9676 9.33715 20.7082 10.029Z" fill="url(#paint3_linear_2924_401)"/>
<defs>
<radialGradient id="paint0_radial_2924_401" cx="0" cy="0" r="1" gradientUnits="userSpaceOnUse" gradientTransform="translate(12 11) rotate(90) scale(14.0909)">
<stop stop-color="#FFED4D"/>
<stop offset="0.680829" stop-color="#FFC839"/>
<stop offset="0.837821" stop-color="#F58D11"/>
<stop offset="1" stop-color="#C87415"/>
</radialGradient>
<radialGradient id="paint1_radial_2924_401" cx="0" cy="0" r="1" gradientUnits="userSpaceOnUse" gradientTransform="translate(12.0002 1.91778) rotate(90) scale(17.6543 19.8646)">
<stop stop-color="#FFFBF4"/>
<stop offset="0.18" stop-color="#FFEBCA"/>
<stop offset="0.545" stop-color="#FFEE68"/>
<stop offset="1" stop-color="#FBC639"/>
</radialGradient>
<linearGradient id="paint2_linear_2924_401" x1="6.49006" y1="7.58174" x2="6.49006" y2="10.8545" gradientUnits="userSpaceOnUse">
<stop stop-color="#9C9C9C"/>
<stop offset="1" stop-color="#1C1C1C"/>
</linearGradient>
<linearGradient id="paint3_linear_2924_401" x1="17.3986" y1="7.58174" x2="17.3986" y2="10.8545" gradientUnits="userSpaceOnUse">
<stop stop-color="#9C9C9C"/>
<stop offset="1" stop-color="#1C1C1C"/>
</linearGradient>
</defs>
</svg>
