<svg width="24" height="24" viewBox="0 0 24 24" fill="none" xmlns="http://www.w3.org/2000/svg">
<path d="M18.5279 21.7698C16.5957 23.0609 14.3239 23.75 12 23.75C8.8837 23.75 5.89505 22.5121 3.69149 20.3085C1.48794 18.105 0.25 15.1163 0.25 12C0.25 9.67607 0.939125 7.40433 2.23023 5.47205C3.52134 3.53978 5.35644 2.03375 7.50347 1.14442C9.6505 0.255091 12.013 0.0224021 14.2923 0.475778C16.5716 0.929155 18.6652 2.04823 20.3085 3.6915C21.9518 5.33477 23.0708 7.42842 23.5242 9.70769C23.9776 11.987 23.7449 14.3495 22.8556 16.4965C21.9662 18.6436 20.4602 20.4787 18.5279 21.7698Z" fill="url(#paint0_radial_2924_392)" stroke="#C25D00" stroke-width="0.5"/>
<path d="M12 18C17 18 21 14.4148 21 10C21 5.58519 17 2 12 2C7 2 3 5.58519 3 10C3 14.4148 7.03 18 12 18Z" fill="url(#paint1_radial_2924_392)"/>
<path d="M15.7621 12.36C16.5148 12.36 17.1257 11.5527 17.1257 10.5491C17.1257 9.54548 16.5148 8.72729 15.7621 8.72729C15.0093 8.72729 14.3984 9.54548 14.3984 10.5491C14.3984 11.5527 15.0093 12.36 15.7621 12.36Z" fill="#733F01"/>
<path d="M8.12731 12.36C8.88003 12.36 9.49094 11.5527 9.49094 10.5491C9.49094 9.54548 8.88003 8.72729 8.12731 8.72729C7.37458 8.72729 6.76367 9.54548 6.76367 10.5491C6.76367 11.5527 7.37458 12.36 8.12731 12.36Z" fill="#733F01"/>
<path d="M3.76244 14.3563C3.70928 14.3306 3.65 14.3203 3.5913 14.3266C3.53261 14.3329 3.47684 14.3555 3.43031 14.3918C3.38377 14.4281 3.34833 14.4767 3.32798 14.5321C3.30764 14.5876 3.3032 14.6476 3.31517 14.7054C3.65905 16.7156 4.72624 18.5308 6.31566 19.8087C7.90509 21.0867 9.90702 21.7393 11.9443 21.6435C13.9888 21.7503 16.0014 21.1027 17.6001 19.8238C19.1988 18.5448 20.2723 16.7235 20.617 14.7054C20.629 14.6476 20.6245 14.5876 20.6042 14.5321C20.5838 14.4767 20.5484 14.4281 20.5018 14.3918C20.4553 14.3555 20.3995 14.3329 20.3409 14.3266C20.2822 14.3203 20.2229 14.3306 20.1697 14.3563C17.578 15.4255 14.7905 15.9384 11.9879 15.8617C9.17067 15.9445 6.36771 15.4315 3.76244 14.3563Z" fill="#733F01"/>
<path d="M11.9448 18.0436C14.278 18.08 16.5997 17.7109 18.8066 16.9527C18.9496 16.9066 19.0816 16.8314 19.1942 16.7319C19.3069 16.6324 19.3977 16.5107 19.4611 16.3745C19.667 15.9212 19.8313 15.4502 19.952 14.9672C17.5576 15.8912 15.0131 16.3646 12.4466 16.3636H11.443C8.87514 16.368 6.3293 15.8906 3.9375 14.9563C4.05827 15.4428 4.22257 15.9174 4.42841 16.3745C4.4918 16.5107 4.58266 16.6324 4.6953 16.7319C4.80793 16.8314 4.93991 16.9066 5.08295 16.9527C7.2898 17.7109 9.61159 18.08 11.9448 18.0436Z" fill="url(#paint2_radial_2924_392)"/>
<defs>
<radialGradient id="paint0_radial_2924_392" cx="0" cy="0" r="1" gradientUnits="userSpaceOnUse" gradientTransform="translate(12 11) rotate(90) scale(14.0909 14.0909)">
<stop stop-color="#FFED4D"/>
<stop offset="0.680829" stop-color="#FFC839"/>
<stop offset="0.837821" stop-color="#F58D11"/>
<stop offset="1" stop-color="#C87415"/>
</radialGradient>
<radialGradient id="paint1_radial_2924_392" cx="0" cy="0" r="1" gradientUnits="userSpaceOnUse" gradientTransform="translate(12.0002 1) rotate(90) scale(18.5721 20.8972)">
<stop stop-color="#FFFBF4"/>
<stop offset="0.0609998" stop-color="#FFEBCA"/>
<stop offset="0.561" stop-color="#FFEE68" stop-opacity="0.8"/>
<stop offset="1" stop-color="#FAA623" stop-opacity="0"/>
</radialGradient>
<radialGradient id="paint2_radial_2924_392" cx="0" cy="0" r="1" gradientUnits="userSpaceOnUse" gradientTransform="translate(12 16.9091) rotate(90) scale(1.63636 7.43238)">
<stop stop-color="white"/>
<stop offset="1" stop-color="#C5C5C5"/>
</radialGradient>
</defs>
</svg>
