<svg width="70" height="70" viewBox="0 0 70 70" fill="none" xmlns="http://www.w3.org/2000/svg">
<path d="M43.8927 69.9991L47.423 28.3831H35.4813L41.1346 69.9991H43.8927Z" fill="url(#paint0_linear_782_514)"/>
<path d="M37.2885 60.2346L30.8006 12.4731L27.6175 22.1232L37.2885 60.2346Z" fill="url(#paint1_linear_782_514)"/>
<path d="M44.4433 16.8963L35.5707 25.8612H47.1049L44.4433 16.8963Z" fill="url(#paint2_linear_782_514)"/>
<path d="M25.4408 20.7444L28.9995 9.95642L13.874 19.8453L25.4408 20.7444Z" fill="url(#paint3_linear_782_514)"/>
<path d="M21.8763 69.9991L7.9967 57.0538C7.86019 56.9266 7.75321 56.7701 7.68412 56.5955L5.09878 50.0644V58.0914L18.0623 69.9991L21.8763 69.9991Z" fill="url(#paint4_linear_782_514)"/>
<path d="M7.73492 63.9199L0 69.9985H14.3524L7.73492 63.9199Z" fill="url(#paint5_linear_782_514)"/>
<path d="M16.7954 47.3887C17.03 47.4833 17.2306 47.6477 17.3704 47.8599L31.9767 69.9989H34.2362L9.13442 21.6869L5.30098 19.1045L16.7445 47.3688L16.7954 47.3887Z" fill="url(#paint6_linear_782_514)"/>
<path d="M12.4863 0L11.4744 18.4105L28.6825 7.15925L12.4863 0Z" fill="url(#paint7_linear_782_514)"/>
<path d="M9.759 4.1312L4.21217 15.3402L8.96664 18.5431L9.759 4.1312Z" fill="url(#paint8_linear_782_514)"/>
<path d="M25.5564 69.9991H28.9769L15.508 49.5852L6.0909 45.7795L9.8971 55.3936L25.5564 69.9991Z" fill="url(#paint9_linear_782_514)"/>
<path d="M46.3974 69.999H48.9036L53.4775 24.9413L49.9799 27.7686L46.3974 69.999Z" fill="url(#paint10_linear_782_514)"/>
<path d="M53.9873 69.999L57.5405 50.8506C57.5733 50.6744 57.643 50.5066 57.7449 50.3597L62.6789 43.2379L53.5026 49.419L51.4132 70L53.9873 69.999Z" fill="url(#paint11_linear_782_514)"/>
<path d="M12.2452 22.2491L37.056 69.999H37.1891L25.3299 23.2652L12.2452 22.2491Z" fill="url(#paint12_linear_782_514)"/>
<path d="M56.5263 69.9991H59.1612L67.4739 48.4005L66.6671 41.8783L59.944 51.5825L56.5263 69.9991Z" fill="url(#paint13_linear_782_514)"/>
<path d="M61.2633 9.46673C61.2633 14.3422 57.3519 18.2944 52.5266 18.2944C57.3519 18.2944 61.2633 22.2466 61.2633 27.122C61.2633 22.2466 65.1748 18.2944 70 18.2944C65.1748 18.2944 61.2633 14.3422 61.2633 9.46673Z" fill="url(#paint14_linear_782_514)"/>
<path d="M36.3014 0.639061C36.3014 3.4247 34.066 5.68342 31.309 5.68342C34.066 5.68342 36.3014 7.94215 36.3014 10.7278C36.3014 7.94215 38.5369 5.68342 41.2938 5.68342C38.5369 5.68342 36.3014 3.4247 36.3014 0.639061Z" fill="url(#paint15_linear_782_514)"/>
<path d="M49.4471 24.9701L52.9858 22.1096L47.3238 17.819L49.4471 24.9701Z" fill="url(#paint16_linear_782_514)"/>
<defs>
<linearGradient id="paint0_linear_782_514" x1="3.88548e-07" y1="58.1" x2="71.1266" y2="55.6372" gradientUnits="userSpaceOnUse">
<stop stop-color="#8E64F5"/>
<stop offset="0.180958" stop-color="#834EFF"/>
<stop offset="0.443921" stop-color="#5C37FE"/>
<stop offset="0.840501" stop-color="#10AFFD"/>
<stop offset="1" stop-color="#7CD6FF"/>
</linearGradient>
<linearGradient id="paint1_linear_782_514" x1="3.88548e-07" y1="58.1" x2="71.1266" y2="55.6372" gradientUnits="userSpaceOnUse">
<stop stop-color="#8E64F5"/>
<stop offset="0.180958" stop-color="#834EFF"/>
<stop offset="0.443921" stop-color="#5C37FE"/>
<stop offset="0.840501" stop-color="#10AFFD"/>
<stop offset="1" stop-color="#7CD6FF"/>
</linearGradient>
<linearGradient id="paint2_linear_782_514" x1="3.88548e-07" y1="58.1" x2="71.1266" y2="55.6372" gradientUnits="userSpaceOnUse">
<stop stop-color="#8E64F5"/>
<stop offset="0.180958" stop-color="#834EFF"/>
<stop offset="0.443921" stop-color="#5C37FE"/>
<stop offset="0.840501" stop-color="#10AFFD"/>
<stop offset="1" stop-color="#7CD6FF"/>
</linearGradient>
<linearGradient id="paint3_linear_782_514" x1="3.88548e-07" y1="58.1" x2="71.1266" y2="55.6372" gradientUnits="userSpaceOnUse">
<stop stop-color="#8E64F5"/>
<stop offset="0.180958" stop-color="#834EFF"/>
<stop offset="0.443921" stop-color="#5C37FE"/>
<stop offset="0.840501" stop-color="#10AFFD"/>
<stop offset="1" stop-color="#7CD6FF"/>
</linearGradient>
<linearGradient id="paint4_linear_782_514" x1="3.88548e-07" y1="58.1" x2="71.1266" y2="55.6372" gradientUnits="userSpaceOnUse">
<stop stop-color="#8E64F5"/>
<stop offset="0.180958" stop-color="#834EFF"/>
<stop offset="0.443921" stop-color="#5C37FE"/>
<stop offset="0.840501" stop-color="#10AFFD"/>
<stop offset="1" stop-color="#7CD6FF"/>
</linearGradient>
<linearGradient id="paint5_linear_782_514" x1="3.88548e-07" y1="58.1" x2="71.1266" y2="55.6372" gradientUnits="userSpaceOnUse">
<stop stop-color="#8E64F5"/>
<stop offset="0.180958" stop-color="#834EFF"/>
<stop offset="0.443921" stop-color="#5C37FE"/>
<stop offset="0.840501" stop-color="#10AFFD"/>
<stop offset="1" stop-color="#7CD6FF"/>
</linearGradient>
<linearGradient id="paint6_linear_782_514" x1="3.88548e-07" y1="58.1" x2="71.1266" y2="55.6372" gradientUnits="userSpaceOnUse">
<stop stop-color="#8E64F5"/>
<stop offset="0.180958" stop-color="#834EFF"/>
<stop offset="0.443921" stop-color="#5C37FE"/>
<stop offset="0.840501" stop-color="#10AFFD"/>
<stop offset="1" stop-color="#7CD6FF"/>
</linearGradient>
<linearGradient id="paint7_linear_782_514" x1="3.88548e-07" y1="58.1" x2="71.1266" y2="55.6372" gradientUnits="userSpaceOnUse">
<stop stop-color="#8E64F5"/>
<stop offset="0.180958" stop-color="#834EFF"/>
<stop offset="0.443921" stop-color="#5C37FE"/>
<stop offset="0.840501" stop-color="#10AFFD"/>
<stop offset="1" stop-color="#7CD6FF"/>
</linearGradient>
<linearGradient id="paint8_linear_782_514" x1="3.88548e-07" y1="58.1" x2="71.1266" y2="55.6372" gradientUnits="userSpaceOnUse">
<stop stop-color="#8E64F5"/>
<stop offset="0.180958" stop-color="#834EFF"/>
<stop offset="0.443921" stop-color="#5C37FE"/>
<stop offset="0.840501" stop-color="#10AFFD"/>
<stop offset="1" stop-color="#7CD6FF"/>
</linearGradient>
<linearGradient id="paint9_linear_782_514" x1="3.88548e-07" y1="58.1" x2="71.1266" y2="55.6372" gradientUnits="userSpaceOnUse">
<stop stop-color="#8E64F5"/>
<stop offset="0.180958" stop-color="#834EFF"/>
<stop offset="0.443921" stop-color="#5C37FE"/>
<stop offset="0.840501" stop-color="#10AFFD"/>
<stop offset="1" stop-color="#7CD6FF"/>
</linearGradient>
<linearGradient id="paint10_linear_782_514" x1="3.88548e-07" y1="58.1" x2="71.1266" y2="55.6372" gradientUnits="userSpaceOnUse">
<stop stop-color="#8E64F5"/>
<stop offset="0.180958" stop-color="#834EFF"/>
<stop offset="0.443921" stop-color="#5C37FE"/>
<stop offset="0.840501" stop-color="#10AFFD"/>
<stop offset="1" stop-color="#7CD6FF"/>
</linearGradient>
<linearGradient id="paint11_linear_782_514" x1="3.88548e-07" y1="58.1" x2="71.1266" y2="55.6372" gradientUnits="userSpaceOnUse">
<stop stop-color="#8E64F5"/>
<stop offset="0.180958" stop-color="#834EFF"/>
<stop offset="0.443921" stop-color="#5C37FE"/>
<stop offset="0.840501" stop-color="#10AFFD"/>
<stop offset="1" stop-color="#7CD6FF"/>
</linearGradient>
<linearGradient id="paint12_linear_782_514" x1="3.88548e-07" y1="58.1" x2="71.1266" y2="55.6372" gradientUnits="userSpaceOnUse">
<stop stop-color="#8E64F5"/>
<stop offset="0.180958" stop-color="#834EFF"/>
<stop offset="0.443921" stop-color="#5C37FE"/>
<stop offset="0.840501" stop-color="#10AFFD"/>
<stop offset="1" stop-color="#7CD6FF"/>
</linearGradient>
<linearGradient id="paint13_linear_782_514" x1="3.88548e-07" y1="58.1" x2="71.1266" y2="55.6372" gradientUnits="userSpaceOnUse">
<stop stop-color="#8E64F5"/>
<stop offset="0.180958" stop-color="#834EFF"/>
<stop offset="0.443921" stop-color="#5C37FE"/>
<stop offset="0.840501" stop-color="#10AFFD"/>
<stop offset="1" stop-color="#7CD6FF"/>
</linearGradient>
<linearGradient id="paint14_linear_782_514" x1="3.88548e-07" y1="58.1" x2="71.1266" y2="55.6372" gradientUnits="userSpaceOnUse">
<stop stop-color="#8E64F5"/>
<stop offset="0.180958" stop-color="#834EFF"/>
<stop offset="0.443921" stop-color="#5C37FE"/>
<stop offset="0.840501" stop-color="#10AFFD"/>
<stop offset="1" stop-color="#7CD6FF"/>
</linearGradient>
<linearGradient id="paint15_linear_782_514" x1="3.88548e-07" y1="58.1" x2="71.1266" y2="55.6372" gradientUnits="userSpaceOnUse">
<stop stop-color="#8E64F5"/>
<stop offset="0.180958" stop-color="#834EFF"/>
<stop offset="0.443921" stop-color="#5C37FE"/>
<stop offset="0.840501" stop-color="#10AFFD"/>
<stop offset="1" stop-color="#7CD6FF"/>
</linearGradient>
<linearGradient id="paint16_linear_782_514" x1="3.88548e-07" y1="58.1" x2="71.1266" y2="55.6372" gradientUnits="userSpaceOnUse">
<stop stop-color="#8E64F5"/>
<stop offset="0.180958" stop-color="#834EFF"/>
<stop offset="0.443921" stop-color="#5C37FE"/>
<stop offset="0.840501" stop-color="#10AFFD"/>
<stop offset="1" stop-color="#7CD6FF"/>
</linearGradient>
</defs>
</svg>
