<svg width="237" height="168" viewBox="0 0 237 168" fill="none" xmlns="http://www.w3.org/2000/svg">
<path d="M175 0L64 0V167H175V0Z" fill="#3182CE"/>
<path d="M169 6H70V167H169V6Z" fill="#A1D1FF"/>
<path d="M158.09 80.0951C159.612 77.6313 158.85 74.3996 156.386 72.8767C153.922 71.3539 150.69 72.1167 149.167 74.5804C147.645 77.0442 148.407 80.2759 150.871 81.7988C153.335 83.3216 156.567 82.5588 158.09 80.0951Z" fill="#3182CE"/>
<path d="M165.971 79.3809C167.095 75.6687 164.997 71.7479 161.285 70.6236C157.573 69.4992 153.652 71.5971 152.527 75.3093C151.403 79.0215 153.501 82.9423 157.213 84.0666C160.925 85.191 164.846 83.0931 165.971 79.3809Z" fill="#2C72B4"/>
<g filter="url(#filter0_d_612_444)">
<path d="M191.41 35.3334L47.2402 54.9541L48.2097 62.0778L192.38 42.4571L191.41 35.3334Z" fill="#FF5C5C"/>
</g>
<path d="M52.8146 61.4516L48.2061 62.0784L51.2366 54.4107L55.8465 53.7839L52.8146 61.4516Z" fill="white"/>
<path d="M61.8517 60.2224L57.2432 60.8493L60.2751 53.1816L64.8836 52.5548L61.8517 60.2224Z" fill="white"/>
<path d="M70.8883 58.9934L66.2798 59.6202L69.3117 51.9526L73.9202 51.3257L70.8883 58.9934Z" fill="white"/>
<path d="M79.9259 57.7629L75.3174 58.3897L78.3493 50.7234L82.9578 50.0966L79.9259 57.7629Z" fill="white"/>
<path d="M88.9644 56.5338L84.3545 57.1606L87.3864 49.4943L91.9949 48.8661L88.9644 56.5338Z" fill="white"/>
<path d="M98.0006 55.3046L93.3921 55.9315L96.4226 48.2638L101.033 47.637L98.0006 55.3046Z" fill="white"/>
<path d="M107.039 54.0755L102.43 54.7023L105.462 47.0346L110.071 46.4078L107.039 54.0755Z" fill="white"/>
<path d="M116.076 52.8465L111.467 53.4733L114.499 45.8056L119.108 45.1788L116.076 52.8465Z" fill="white"/>
<path d="M125.112 51.6173L120.504 52.2441L123.536 44.5765L128.144 43.9496L125.112 51.6173Z" fill="white"/>
<path d="M134.152 50.3882L129.542 51.015L132.574 43.3473L137.182 42.7205L134.152 50.3882Z" fill="white"/>
<path d="M143.188 49.1578L138.58 49.7846L141.61 42.1183L146.22 41.4914L143.188 49.1578Z" fill="white"/>
<path d="M152.225 47.9285L147.617 48.5554L150.649 40.8877L155.257 40.2609L152.225 47.9285Z" fill="white"/>
<path d="M161.263 46.6995L156.654 47.3263L159.686 39.6586L164.295 39.0318L161.263 46.6995Z" fill="white"/>
<path d="M170.301 45.4704L165.691 46.0972L168.723 38.4295L173.331 37.8027L170.301 45.4704Z" fill="white"/>
<path d="M179.338 44.2412L174.728 44.868L177.76 37.2004L182.37 36.5735L179.338 44.2412Z" fill="white"/>
<path d="M188.375 43.0122L183.767 43.639L186.797 35.9713L191.407 35.3445L188.375 43.0122Z" fill="white"/>
<g filter="url(#filter1_d_612_444)">
<path d="M192.604 108.853L47.5801 97.1085L46.9997 104.274L192.024 116.019L192.604 108.853Z" fill="#FF5C5C"/>
</g>
<path d="M51.6392 104.65L47.0034 104.274L51.6078 97.4348L56.2436 97.8095L51.6392 104.65Z" fill="white"/>
<path d="M60.731 105.386L56.0952 105.01L60.6983 98.1707L65.3354 98.5467L60.731 105.386Z" fill="white"/>
<path d="M69.8218 106.122L65.186 105.747L69.7905 98.9064L74.4262 99.2825L69.8218 106.122Z" fill="white"/>
<path d="M78.9135 106.858L74.2764 106.483L78.8808 99.6423L83.5179 100.018L78.9135 106.858Z" fill="white"/>
<path d="M88.0039 107.593L83.3682 107.219L87.9726 100.378L92.6083 100.754L88.0039 107.593Z" fill="white"/>
<path d="M97.0951 108.329L92.458 107.954L97.0624 101.114L101.7 101.49L97.0951 108.329Z" fill="white"/>
<path d="M106.186 109.065L101.55 108.69L106.154 101.851L110.79 102.226L106.186 109.065Z" fill="white"/>
<path d="M115.277 109.801L110.64 109.426L115.245 102.587L119.882 102.962L115.277 109.801Z" fill="white"/>
<path d="M124.367 110.537L119.731 110.162L124.336 103.323L128.972 103.698L124.367 110.537Z" fill="white"/>
<path d="M133.458 111.274L128.822 110.898L133.427 104.059L138.062 104.433L133.458 111.274Z" fill="white"/>
<path d="M142.549 112.01L137.913 111.634L142.518 104.794L147.153 105.169L142.549 112.01Z" fill="white"/>
<path d="M151.64 112.746L147.004 112.37L151.608 105.53L156.244 105.905L151.64 112.746Z" fill="white"/>
<path d="M160.731 113.481L156.096 113.105L160.7 106.266L165.336 106.641L160.731 113.481Z" fill="white"/>
<path d="M169.821 114.217L165.186 113.841L169.79 107.002L174.426 107.378L169.821 114.217Z" fill="white"/>
<path d="M178.913 114.953L174.276 114.578L178.88 107.738L183.517 108.114L178.913 114.953Z" fill="white"/>
<path d="M188.003 115.689L183.368 115.314L187.972 108.474L192.608 108.85L188.003 115.689Z" fill="white"/>
<path d="M15.221 23.6102C15.42 23.9266 15.6256 24.1375 15.8379 24.2429C16.2257 24.434 16.7236 24.3925 17.3319 24.1183C17.6962 23.9541 17.9739 23.7807 18.165 23.5981C18.5268 23.25 18.6135 22.8671 18.4252 22.4494C18.3153 22.2054 18.1232 22.0648 17.8491 22.0275C17.5764 21.9936 17.1886 22.0297 16.6856 22.1358L15.8244 22.3128C14.9775 22.4855 14.361 22.5362 13.975 22.4649C13.3234 22.3485 12.8341 21.9277 12.5072 21.2025C12.209 20.5408 12.2018 19.8826 12.4857 19.2278C12.7696 18.5731 13.3778 18.0356 14.3102 17.6153C15.0889 17.2643 15.8456 17.1725 16.5805 17.3399C17.3172 17.5024 17.876 17.9703 18.2567 18.7436L16.7729 19.4124C16.5458 18.98 16.2096 18.7516 15.7643 18.7271C15.4679 18.7119 15.141 18.7849 14.7834 18.9461C14.3857 19.1254 14.1043 19.3487 13.9394 19.616C13.7744 19.8834 13.7567 20.1608 13.8862 20.4482C14.0052 20.7122 14.2111 20.8567 14.5038 20.8816C14.6933 20.9007 15.0601 20.858 15.6041 20.7535L17.0152 20.4854C17.6336 20.3675 18.1353 20.3565 18.5203 20.4523C19.1181 20.6011 19.5654 21.0046 19.8621 21.663C20.1664 22.338 20.1605 23.0162 19.8443 23.6976C19.53 24.374 18.9016 24.9247 17.9592 25.3495C16.9967 25.7833 16.1411 25.9056 15.3923 25.7164C14.6421 25.5238 14.0937 25.0432 13.7472 24.2745L15.221 23.6102ZM24.0172 13.4992L24.6069 14.8076L22.3962 15.8041L25.1371 21.8848L23.5831 22.5853L20.8422 16.5046L18.6215 17.5056L18.0317 16.1972L24.0172 13.4992ZM30.8461 17.9846C31.4576 17.7089 31.8405 17.2649 31.9948 16.6526C32.1523 16.0387 32.0436 15.3157 31.6685 14.4835C31.2949 13.6547 30.826 13.0961 30.2617 12.8076C29.6992 12.5143 29.1122 12.5055 28.5006 12.7811C27.889 13.0568 27.5028 13.5023 27.3419 14.1177C27.1809 14.733 27.288 15.4568 27.6631 16.289C28.0382 17.1211 28.5096 17.6807 29.0772 17.9676C29.6449 18.2546 30.2345 18.2603 30.8461 17.9846ZM33.2125 13.7876C33.8105 15.1143 33.8958 16.2983 33.4684 17.3394C33.1694 18.1657 32.4919 18.8169 31.4358 19.293C30.3798 19.769 29.4431 19.8454 28.6259 19.5221C27.5595 19.1544 26.7272 18.3072 26.1292 16.9804C25.5191 15.6269 25.4354 14.4422 25.8782 13.4264C26.1772 12.6 26.8548 11.9488 27.9108 11.4727C28.9669 10.9967 29.9035 10.9203 30.7208 11.2436C31.7718 11.5861 32.6024 12.4341 33.2125 13.7876ZM37.9552 10.0454C37.782 9.66107 37.5566 9.43297 37.2789 9.36111C37.0046 9.28774 36.6852 9.33315 36.321 9.49735L34.8823 10.1458L35.8629 12.3215L37.3016 11.673C37.6659 11.5088 37.9084 11.2929 38.0291 11.0254C38.1531 10.7564 38.1285 10.4297 37.9552 10.0454ZM39.4797 9.34619C39.8729 10.2185 39.9302 10.9345 39.6518 11.4942C39.3733 12.054 38.8247 12.5184 38.0059 12.8875L36.4369 13.5948L37.6344 16.2516L36.1005 16.9431L32.7698 9.55397L35.9882 8.10331C36.7301 7.76889 37.4075 7.69275 38.0203 7.87489C38.6332 8.05703 39.1197 8.54746 39.4797 9.34619Z" fill="#FF5C5C"/>
<path d="M206.216 131.102L207.677 132.045L203.973 137.78L207.435 140.016L206.624 141.273L201.7 138.093L206.216 131.102ZM208.976 142.792L207.525 141.855L212.04 134.864L213.492 135.801L208.976 142.792ZM219.492 139.676L221.593 141.033L217.077 148.025L215.716 147.145L218.77 142.417C218.858 142.281 218.982 142.092 219.143 141.851C219.305 141.606 219.429 141.417 219.515 141.284L214.402 146.297L212.984 145.381L215.46 138.665C215.374 138.798 215.253 138.989 215.097 139.237C214.943 139.483 214.822 139.674 214.734 139.81L211.68 144.538L210.318 143.659L214.834 136.668L216.959 138.04L214.679 144.359L219.492 139.676ZM219.771 149.765L218.32 148.827L222.835 141.836L224.287 142.773L219.771 149.765ZM230.733 146.937L229.933 148.175L227.841 146.824L224.125 152.577L222.655 151.627L226.371 145.874L224.27 144.517L225.069 143.279L230.733 146.937Z" fill="#FF5C5C"/>
<path d="M7.98274 143.978C7.83309 143.665 7.7466 143.325 7.7282 142.979C7.70981 142.632 7.75987 142.286 7.87553 141.958C7.99119 141.631 8.17018 141.33 8.40228 141.072C8.63439 140.814 8.91507 140.604 9.22828 140.454C9.5415 140.304 9.88113 140.218 10.2278 140.199C10.5744 140.181 10.9213 140.23 11.2486 140.346C11.5759 140.461 11.8772 140.64 12.1353 140.872C12.3935 141.104 12.6033 141.384 12.753 141.697C13.0552 142.33 13.0938 143.056 12.8602 143.717C12.6266 144.378 12.14 144.919 11.5074 145.221C10.8749 145.524 10.1481 145.563 9.48713 145.329C8.82612 145.096 8.28498 144.61 7.98274 143.978ZM1.37332 129.553C1.19779 129.267 1.08429 128.948 1.04019 128.615C0.99609 128.283 1.02237 127.945 1.11733 127.624C1.21228 127.302 1.3738 127.004 1.59138 126.749C1.80897 126.494 2.07777 126.287 2.38035 126.143C2.68292 125.998 3.01251 125.919 3.34773 125.909C3.68295 125.9 4.01631 125.962 4.32618 126.09C4.63604 126.218 4.9155 126.409 5.14641 126.652C5.37732 126.895 5.55453 127.184 5.66653 127.5L8.82824 136.258C8.9572 136.6 8.9531 136.978 8.81676 137.317C8.68042 137.656 8.42177 137.932 8.09197 138.09C7.76218 138.247 7.38525 138.275 7.03576 138.169C6.68627 138.062 6.38966 137.828 6.20461 137.513L1.37332 129.553Z" fill="#A1D1FF"/>
<path d="M233.357 25.2924C233.421 25.0426 233.434 24.7828 233.397 24.5277C233.361 24.2726 233.274 24.0272 233.142 23.8056C233.01 23.584 232.836 23.3904 232.63 23.236C232.423 23.0817 232.188 22.9694 231.938 22.9058C231.688 22.8421 231.428 22.8283 231.173 22.8651C230.918 22.9019 230.672 22.9885 230.451 23.1201C230.229 23.2517 230.035 23.4257 229.881 23.6321C229.727 23.8385 229.614 24.0733 229.551 24.3231C229.422 24.8275 229.5 25.3623 229.766 25.8099C230.032 26.2575 230.465 26.5811 230.969 26.7097C231.474 26.8382 232.009 26.7611 232.457 26.4953C232.905 26.2295 233.228 25.7968 233.357 25.2924ZM236.079 13.8238C236.166 13.5903 236.202 13.3412 236.186 13.0928C236.17 12.8443 236.102 12.602 235.986 12.3815C235.87 12.161 235.709 11.9673 235.513 11.813C235.318 11.6587 235.092 11.5471 234.851 11.4857C234.609 11.4242 234.358 11.4141 234.112 11.4561C233.867 11.4981 233.633 11.5912 233.425 11.7294C233.218 11.8676 233.042 12.0478 232.909 12.2583C232.776 12.4689 232.689 12.705 232.653 12.9514L231.621 19.7911C231.577 20.0588 231.634 20.3335 231.783 20.5607C231.931 20.788 232.16 20.9512 232.423 21.0182C232.686 21.0853 232.965 21.0511 233.204 20.9226C233.443 20.7941 233.625 20.5806 233.714 20.3242L236.079 13.8238Z" fill="#A1D1FF"/>
<line x1="37.5" y1="167.5" x2="195.5" y2="167.5" stroke="#3182CE" stroke-linecap="round"/>
<line x1="47.3" y1="163.7" x2="57.7" y2="163.7" stroke="#3182CE" stroke-width="0.6" stroke-linecap="round"/>
<line x1="179.3" y1="164.7" x2="185.7" y2="164.7" stroke="#3182CE" stroke-width="0.6" stroke-linecap="round"/>
<defs>
<filter id="filter0_d_612_444" x="34.3942" y="19.2758" width="185.284" height="66.8884" filterUnits="userSpaceOnUse" color-interpolation-filters="sRGB">
<feFlood flood-opacity="0" result="BackgroundImageFix"/>
<feColorMatrix in="SourceAlpha" type="matrix" values="0 0 0 0 0 0 0 0 0 0 0 0 0 0 0 0 0 0 127 0" result="hardAlpha"/>
<feOffset dx="7.22592" dy="4.0144"/>
<feGaussianBlur stdDeviation="10.036"/>
<feComposite in2="hardAlpha" operator="out"/>
<feColorMatrix type="matrix" values="0 0 0 0 1 0 0 0 0 0.360784 0 0 0 0 0.360784 0 0 0 0.4 0"/>
<feBlend mode="normal" in2="BackgroundImageFix" result="effect1_dropShadow_612_444"/>
<feBlend mode="normal" in="SourceGraphic" in2="effect1_dropShadow_612_444" result="shape"/>
</filter>
<filter id="filter1_d_612_444" x="34.1534" y="81.0508" width="185.749" height="59.0547" filterUnits="userSpaceOnUse" color-interpolation-filters="sRGB">
<feFlood flood-opacity="0" result="BackgroundImageFix"/>
<feColorMatrix in="SourceAlpha" type="matrix" values="0 0 0 0 0 0 0 0 0 0 0 0 0 0 0 0 0 0 127 0" result="hardAlpha"/>
<feOffset dx="7.22592" dy="4.0144"/>
<feGaussianBlur stdDeviation="10.036"/>
<feComposite in2="hardAlpha" operator="out"/>
<feColorMatrix type="matrix" values="0 0 0 0 1 0 0 0 0 0.360784 0 0 0 0 0.360784 0 0 0 0.4 0"/>
<feBlend mode="normal" in2="BackgroundImageFix" result="effect1_dropShadow_612_444"/>
<feBlend mode="normal" in="SourceGraphic" in2="effect1_dropShadow_612_444" result="shape"/>
</filter>
</defs>
</svg>
