<svg width="20" height="22" viewBox="0 0 20 22" fill="none" xmlns="http://www.w3.org/2000/svg">
<path d="M14.274 10.9999L14.274 10.9985C14.2727 10.8591 14.231 10.7232 14.1541 10.607C14.1279 10.5564 14.0957 10.5091 14.0583 10.466L14.0586 10.4658L14.051 10.4582L10.5215 6.93347L10.5213 6.93332C10.3811 6.79365 10.191 6.71531 9.99294 6.71531C9.79487 6.71531 9.60478 6.79365 9.46454 6.93332C9.32427 7.073 9.24535 7.26258 9.24535 7.4604C9.24535 7.65821 9.32427 7.84779 9.46454 7.98748L11.7326 10.246H1.59655C1.39875 10.246 1.20893 10.3243 1.06888 10.4637C0.928807 10.6032 0.85 10.7926 0.85 10.9901C0.85 11.1876 0.928807 11.377 1.06888 11.5164C1.20893 11.6559 1.39875 11.7342 1.59655 11.7342H11.6779L9.44465 14.0026C9.44446 14.0028 9.44427 14.003 9.44408 14.0032C9.30417 14.1428 9.22547 14.3322 9.22547 14.5297C9.22547 14.7275 9.30439 14.9171 9.44465 15.0568C9.5849 15.1964 9.77498 15.2748 9.97305 15.2748C10.1711 15.2748 10.3612 15.1964 10.5014 15.0568L14.0057 11.5671C14.0885 11.4991 14.1555 11.4139 14.2018 11.3174C14.2494 11.2183 14.2741 11.1098 14.274 10.9999ZM19.2452 16.4455V5.55446C19.2452 4.30655 18.7474 3.10989 17.8615 2.22768C16.9756 1.34549 15.7743 0.85 14.5217 0.85H7.56201C7.10052 0.85 6.65782 1.03255 6.33131 1.3577C6.00478 1.68287 5.82122 2.12403 5.82122 2.58416V6.54455C5.82122 6.74209 5.90003 6.93142 6.0401 7.0709C6.18015 7.21037 6.36997 7.28861 6.56777 7.28861C6.76556 7.28861 6.95538 7.21037 7.09543 7.0709C7.2355 6.93142 7.31431 6.74209 7.31431 6.54455V2.58416C7.31431 2.51911 7.34026 2.45659 7.38664 2.4104C7.43304 2.36419 7.49611 2.33812 7.56201 2.33812H14.5217C15.3787 2.33812 16.2004 2.67713 16.8062 3.28038C17.412 3.88361 17.7521 4.70163 17.7521 5.55446V16.4455C17.7521 17.2984 17.412 18.1164 16.8062 18.7196C16.2004 19.3229 15.3787 19.6619 14.5217 19.6619H7.56201C7.49611 19.6619 7.43304 19.6358 7.38664 19.5896C7.34026 19.5434 7.31431 19.4809 7.31431 19.4158V15.4554C7.31431 15.2579 7.2355 15.0686 7.09543 14.9291C6.95538 14.7896 6.76556 14.7114 6.56777 14.7114C6.36997 14.7114 6.18015 14.7896 6.0401 14.9291C5.90003 15.0686 5.82122 15.2579 5.82122 15.4554V19.4158C5.82122 19.876 6.00478 20.3171 6.33131 20.6423C6.65782 20.9674 7.10052 21.15 7.56201 21.15H14.5217C15.7743 21.15 16.9756 20.6545 17.8615 19.7723C18.7474 18.8901 19.2452 17.6934 19.2452 16.4455Z" fill="black" stroke="black" stroke-width="0.3"/>
</svg>
