<svg width="71" height="72" viewBox="0 0 71 72" fill="none" xmlns="http://www.w3.org/2000/svg">
<rect x="1" y="0.695801" width="70" height="70" rx="8" transform="rotate(0.5 1 0.695801)" fill="white"/>
<path d="M15.2286 21.5571C15.4143 21.5594 15.5986 21.525 15.771 21.4558C15.9433 21.3867 16.1003 21.2842 16.2329 21.1542C16.3655 21.0242 16.4712 20.8693 16.5437 20.6984C16.6163 20.5275 16.6545 20.3439 16.6559 20.1582L16.7126 13.6585L23.2124 13.7152C23.5863 13.7185 23.9462 13.5731 24.213 13.311C24.4797 13.0489 24.6314 12.6915 24.6346 12.3176C24.6379 11.9436 24.4925 11.5837 24.2304 11.317C23.9683 11.0503 23.6109 10.8986 23.237 10.8953L15.3223 10.8263C14.9484 10.823 14.5884 10.9684 14.3217 11.2305C14.055 11.4926 13.9033 11.85 13.9 12.2239L13.831 20.1336C13.8278 20.5075 13.9732 20.8675 14.2353 21.1342C14.4974 21.4009 14.8547 21.5538 15.2286 21.5571Z" fill="#74B9FF"/>
<path d="M22.8418 56.187L16.3421 56.1303L16.3989 49.623C16.4022 49.2491 16.2567 48.8892 15.9946 48.6224C15.7325 48.3557 15.3752 48.204 15.0013 48.2008C14.6273 48.1975 14.2674 48.3429 14.0007 48.605C13.7339 48.8672 13.5823 49.2245 13.579 49.5984L13.5099 57.5144C13.5083 57.6995 13.5432 57.8831 13.6125 58.0548C13.6819 58.2265 13.7844 58.3829 13.9142 58.5149C14.044 58.647 14.1985 58.7522 14.3689 58.8245C14.5394 58.8969 14.7224 58.935 14.9076 58.9366L22.8172 59.0056C23.1912 59.0089 23.5511 58.8635 23.8178 58.6014C24.0846 58.3392 24.2362 57.9819 24.2395 57.608C24.2428 57.2341 24.0973 56.8741 23.8352 56.6074C23.5731 56.3407 23.2158 56.1902 22.8418 56.187Z" fill="#74B9FF"/>
<path d="M54.9758 21.9041C55.161 21.9057 55.3446 21.8709 55.5163 21.8015C55.688 21.7321 55.8443 21.6296 55.9764 21.4999C56.1085 21.3701 56.2137 21.2156 56.286 21.0451C56.3584 20.8747 56.3965 20.6916 56.3981 20.5065L56.4672 12.5905C56.4704 12.2166 56.325 11.8567 56.0629 11.59C55.8008 11.3232 55.4435 11.1716 55.0695 11.1683L47.1536 11.0992C46.7796 11.096 46.4197 11.2414 46.153 11.5035C45.8863 11.7656 45.7346 12.1229 45.7313 12.4969C45.7281 12.8708 45.8735 13.2307 46.1356 13.4974C46.3977 13.7642 46.755 13.9158 47.129 13.9191L53.6362 13.9759L53.5794 20.4806C53.5762 20.8546 53.7216 21.2145 53.9837 21.4812C54.2458 21.7479 54.6031 21.8996 54.9771 21.9029L54.9758 21.9041Z" fill="#74B9FF"/>
<path d="M45.475 29.2611L45.5325 22.6751C45.5335 22.5182 45.4722 22.3672 45.3621 22.2554C45.252 22.1436 45.1021 22.0801 44.9452 22.0787L23.3723 21.8904C23.2945 21.8896 23.2174 21.9041 23.1452 21.9331C23.0731 21.9621 23.0074 22.0051 22.9519 22.0595C22.8964 22.1139 22.8521 22.1788 22.8217 22.2503C22.7913 22.3219 22.7753 22.3987 22.7746 22.4765L22.7172 29.0625C22.7158 29.2196 22.7769 29.3708 22.887 29.4829C22.9972 29.595 23.1473 29.6587 23.3045 29.6601L26.4493 29.6875C26.6062 29.6886 26.7572 29.6273 26.869 29.5172C26.9808 29.4071 27.0444 29.2572 27.0457 29.1002L27.0654 26.8503C27.0668 26.6932 27.1305 26.543 27.2426 26.4329C27.3546 26.3228 27.5059 26.2616 27.663 26.263L31.3629 26.2953C31.4407 26.2958 31.5177 26.3117 31.5894 26.342C31.6611 26.3724 31.7261 26.4166 31.7807 26.4721C31.8352 26.5277 31.8783 26.5934 31.9074 26.6656C31.9365 26.7379 31.951 26.8151 31.9502 26.8929L31.8081 43.1711C31.8076 43.2489 31.7917 43.3259 31.7614 43.3976C31.731 43.4693 31.6868 43.5343 31.6313 43.5889C31.5757 43.6434 31.51 43.6865 31.4378 43.7156C31.3656 43.7447 31.2883 43.7592 31.2105 43.7584L29.593 43.7443C29.4359 43.7429 29.2846 43.804 29.1726 43.9141C29.0605 44.0243 28.9968 44.1744 28.9954 44.3316L28.9679 47.4764C28.9673 47.5542 28.9819 47.6313 29.0111 47.7034C29.0402 47.7754 29.0833 47.841 29.1379 47.8964C29.1924 47.9518 29.2574 47.9959 29.329 48.0262C29.4006 48.0565 29.4775 48.0723 29.5553 48.0728L38.3049 48.1492C38.4618 48.1506 38.6129 48.0896 38.7249 47.9798C38.837 47.8699 38.9008 47.72 38.9025 47.5631L38.93 44.4183C38.9314 44.2611 38.8703 44.1099 38.7601 43.9978C38.65 43.8857 38.4998 43.822 38.3427 43.8206L36.7265 43.8065C36.6486 43.806 36.5717 43.7901 36.5 43.7598C36.4283 43.7294 36.3633 43.6852 36.3087 43.6297C36.2541 43.5742 36.2111 43.5084 36.182 43.4362C36.1529 43.364 36.1383 43.2867 36.1392 43.2089L36.2813 26.9245C36.2818 26.8467 36.2977 26.7697 36.3281 26.698C36.3584 26.6263 36.4026 26.5613 36.4581 26.5067C36.5137 26.4521 36.5794 26.4091 36.6516 26.38C36.7238 26.3509 36.8011 26.3364 36.8789 26.3372L40.5776 26.3695C40.7347 26.3709 40.8848 26.4346 40.995 26.5467C41.1051 26.6587 41.1662 26.81 41.1649 26.9671L41.1452 29.217C41.1439 29.374 41.2048 29.525 41.3147 29.637C41.4245 29.7491 41.5744 29.813 41.7313 29.8147L44.8761 29.8421C45.0333 29.8435 45.1845 29.7824 45.2966 29.6722C45.4087 29.5621 45.4724 29.4119 45.4738 29.2548L45.475 29.2611Z" fill="#0984E3"/>
<path d="M42.477 58.213C44.0742 58.2041 45.6631 57.9847 47.2029 57.5605C47.4015 57.5127 47.5757 57.3939 47.6926 57.2264C47.8096 57.0589 47.8612 56.8545 47.8378 56.6515C47.8143 56.4486 47.7174 56.2613 47.5653 56.1249C47.4133 55.9886 47.2165 55.9126 47.0123 55.9113C46.9375 55.9105 46.863 55.9199 46.7908 55.9393C45.3755 56.3339 43.9145 56.5409 42.4452 56.5552C41.1842 56.565 39.9351 56.3106 38.7784 55.8084C37.6216 55.3061 36.583 54.5671 35.7292 53.639C35.653 53.5573 35.5612 53.4918 35.4591 53.4465C35.3571 53.4011 35.2469 53.3768 35.1352 53.3751C34.9661 53.3759 34.8011 53.4265 34.6606 53.5207C34.5202 53.6148 34.4106 53.7484 34.3456 53.9045C34.2816 54.0558 34.265 54.223 34.2979 54.384C34.3309 54.5449 34.4119 54.6921 34.5302 54.8061C35.5484 55.8911 36.7799 56.7539 38.1475 57.3402C39.5151 57.9266 40.9891 58.2237 42.477 58.213Z" fill="#0984E3"/>
<path d="M53.8904 36.9828L55.701 35.2036C55.8399 35.0672 55.9401 34.8965 55.9914 34.7087C56.0426 34.521 56.0431 34.323 55.9927 34.135C55.9423 33.947 55.843 33.7758 55.7047 33.6388C55.5665 33.5018 55.3943 33.404 55.2058 33.3554L48.3398 31.5792C48.2522 31.5562 48.162 31.5441 48.0714 31.5431C47.9043 31.542 47.7392 31.5789 47.5885 31.6511C47.4378 31.7232 47.3055 31.8287 47.2016 31.9596C47.0977 32.0905 47.025 32.2433 46.9889 32.4064C46.9528 32.5695 46.9543 32.7388 46.9933 32.9012L48.6494 39.7909C48.6946 39.9805 48.7894 40.1545 48.924 40.2954C49.0586 40.4362 49.2283 40.5387 49.4156 40.5924C49.6029 40.646 49.8011 40.6489 49.9899 40.6007C50.1786 40.5526 50.3512 40.4551 50.4899 40.3183L52.2551 38.5836C53.7797 40.3718 54.7578 42.5608 55.0728 44.8895C55.3877 47.2182 55.0262 49.5884 54.0314 51.7173C53.0366 53.8462 51.4504 55.6441 49.462 56.8965C47.4737 58.1489 45.1671 58.803 42.8173 58.7807C41.2121 58.7715 39.6248 58.4441 38.147 57.8176C36.6691 57.191 35.3302 56.2777 34.2076 55.1305C34.1046 55.0181 33.9798 54.9279 33.8409 54.8652C33.702 54.8026 33.5518 54.7688 33.3994 54.7659C33.167 54.7678 32.9403 54.8383 32.7477 54.9685C32.5551 55.0986 32.4052 55.2827 32.3168 55.4977C32.2309 55.7043 32.2098 55.9321 32.2561 56.151C32.3024 56.3699 32.4139 56.5696 32.5761 56.7238C33.9086 58.0872 35.4984 59.1727 37.2533 59.9176C39.0082 60.6624 40.8934 61.0518 42.7999 61.0632C45.6001 61.0877 48.3478 60.3028 50.7125 58.8027C53.0772 57.3026 54.9582 55.1514 56.1292 52.6076C57.3003 50.0639 57.7115 47.2359 57.3134 44.464C56.9153 41.6921 55.7249 39.0942 53.8854 36.9828L53.8904 36.9828Z" fill="#0984E3"/>
</svg>
