<svg xmlns="http://www.w3.org/2000/svg" width="35.087" height="40" viewBox="0 0 35.087 40">
  <g id="logo" transform="translate(-85.74 -27.74)">
    <g id="Group_1" data-name="Group 1" transform="translate(85.74 27.74)">
      <path id="Path_21" data-name="Path 21" d="M86.868,36.329A1.128,1.128,0,0,0,88,35.2V30H93.2a1.128,1.128,0,1,0,0-2.256H86.868a1.128,1.128,0,0,0-1.128,1.128V35.2a1.128,1.128,0,0,0,1.128,1.128Zm0,0" transform="translate(-85.74 -27.74)" fill="#74b9ff"/>
      <path id="Path_22" data-name="Path 22" d="M93.2,740.263H88v-5.206a1.128,1.128,0,0,0-2.256,0v6.333a1.128,1.128,0,0,0,1.128,1.128H93.2a1.128,1.128,0,0,0,0-2.256Zm0,0" transform="translate(-85.74 -704.024)" fill="#74b9ff"/>
    </g>
    <g id="Group_2" data-name="Group 2" transform="translate(111.206 27.74)">
      <path id="Path_23" data-name="Path 23" d="M694.541,36.329a1.128,1.128,0,0,0,1.128-1.128V28.868a1.128,1.128,0,0,0-1.128-1.128h-6.333a1.128,1.128,0,1,0,0,2.256h5.206V35.2a1.128,1.128,0,0,0,1.128,1.128Zm0,0" transform="translate(-687.08 -27.74)" fill="#74b9ff"/>
    </g>
    <path id="Path_24" data-name="Path 24" d="M273.267,241.243v-5.269a.474.474,0,0,0-.474-.473H255.534a.473.473,0,0,0-.474.473v5.269a.474.474,0,0,0,.474.474h2.516a.474.474,0,0,0,.473-.474v-1.8a.474.474,0,0,1,.474-.474h2.96a.473.473,0,0,1,.474.474v13.023a.473.473,0,0,1-.474.474h-1.294a.474.474,0,0,0-.474.474v2.516a.473.473,0,0,0,.474.473h7a.474.474,0,0,0,.474-.473v-2.516a.474.474,0,0,0-.474-.474H266.37a.473.473,0,0,1-.474-.474V239.438a.473.473,0,0,1,.474-.474h2.959a.474.474,0,0,1,.474.474v1.8a.474.474,0,0,0,.473.474h2.516a.474.474,0,0,0,.474-.474Zm0,0" transform="translate(-162.149 -198.962)" fill="#0984e3"/>
    <g id="Group_3" data-name="Group 3" transform="translate(100.711 44.087)">
      <path id="Path_25" data-name="Path 25" d="M484.252,832.1h0a14.541,14.541,0,0,0,3.776-.555.669.669,0,0,0-.164-1.318.657.657,0,0,0-.177.024,13.432,13.432,0,0,1-3.472.523,7.224,7.224,0,0,1-5.393-2.286.664.664,0,0,0-.477-.207.688.688,0,0,0-.628.429.65.65,0,0,0,.154.72A8.633,8.633,0,0,0,484.252,832.1Z" transform="translate(-476.041 -810.725)" fill="#0984e3"/>
      <path id="Path_26" data-name="Path 26" d="M456.447,418.062l1.436-1.436a.879.879,0,0,0-.409-1.475l-5.505-1.373a.883.883,0,0,0-.215-.027.881.881,0,0,0-.853,1.094l1.373,5.5a.879.879,0,0,0,1.476.409l1.4-1.4a9.8,9.8,0,0,1-7.409,16.223,9.715,9.715,0,0,1-6.913-2.86.9.9,0,0,0-.649-.286.945.945,0,0,0-.861.593.885.885,0,0,0,.216.979,11.533,11.533,0,0,0,8.209,3.4h0a11.627,11.627,0,0,0,8.7-19.341Z" transform="translate(-439.254 -413.75)" fill="#0984e3"/>
    </g>
  </g>
</svg>
