<svg width="18" height="17" viewBox="0 0 18 17" fill="none" xmlns="http://www.w3.org/2000/svg">
<path id="Vector" d="M3.2143 1.24206e-06C3.09502 5.24464e-06 2.97809 0.0331965 2.8766 0.0958618C2.77511 0.158527 2.69306 0.248195 2.63962 0.354833L0.0683778 5.49733C0.0127706 5.60805 -0.00965386 5.73248 0.00380321 5.85564C0.0172603 5.97881 0.0660254 6.09546 0.14423 6.19156L8.50078 16.4765C8.56105 16.5507 8.6371 16.6105 8.72339 16.6515C8.80968 16.6926 8.90404 16.7139 8.9996 16.7139C9.09516 16.7139 9.18952 16.6926 9.27581 16.6515C9.3621 16.6105 9.43815 16.5507 9.49842 16.4765L17.855 6.19156C17.9334 6.09559 17.9824 5.979 17.9961 5.85583C18.0098 5.73267 17.9875 5.60817 17.9321 5.49733L15.3609 0.354833C15.3073 0.247999 15.2251 0.158202 15.1233 0.0955237C15.0216 0.0328452 14.9044 -0.000233626 14.7849 1.24206e-06H3.2143ZM1.68312 5.14249L3.61155 1.28562H6.24708L5.28287 5.14249H1.68312ZM1.99296 6.42812H5.31372L7.38743 13.0671L1.99296 6.42812ZM6.65977 6.42812H11.3394L8.9996 13.9143L6.65977 6.42812ZM12.6868 6.42812H16.0062L10.6118 13.0671L12.6868 6.42812ZM16.3161 5.14249H12.7163L11.7521 1.28562H14.3876L16.3161 5.14249ZM11.3909 5.14249H6.60834L7.57256 1.28562H10.4266L11.3909 5.14249Z" fill="white"/>
</svg>
