<svg id="Step2" xmlns="http://www.w3.org/2000/svg" width="46.361" height="50" viewBox="0 0 46.361 50">
  <path id="Path_36" data-name="Path 36" d="M152.737,62.047h25.905A10.228,10.228,0,0,1,188.87,72.274v1.679A23.955,23.955,0,0,0,159.9,112.047h-7.162a10.227,10.227,0,0,1-10.227-10.227V72.274a10.226,10.226,0,0,1,10.227-10.227Z" transform="translate(-142.509 -62.047)" fill="#0984e3"/>
  <path id="Path_37" data-name="Path 37" d="M167.764,223.252a2.6,2.6,0,0,1,2.182-1.182l12.362-.077a2.611,2.611,0,1,1,0,5.222l-6.12.038,14.659,14.659a2.611,2.611,0,0,1-3.693,3.693l-9.485-9.485h0l-5.186-5.187-.037,6.162a2.612,2.612,0,0,1-5.224,0l.076-12.362a2.611,2.611,0,0,1,.468-1.483Z" transform="translate(-148.188 -202.984)" fill="#74b9ff"/>
</svg>
