<svg xmlns="http://www.w3.org/2000/svg" width="49.093" height="50" viewBox="0 0 49.093 50">
  <g id="Step3" transform="translate(-1354.432 -969)">
    <path id="Path_92" data-name="Path 92" d="M132.823,54.555a1.457,1.457,0,0,1,0-2.914h13.228a1.457,1.457,0,1,1,0,2.914Zm-10.9,11.655h24.067a1.457,1.457,0,0,0,0-2.914H121.926a1.443,1.443,0,0,0-1.457,1.457A1.48,1.48,0,0,0,121.926,66.21Zm-1.457-7.284a1.443,1.443,0,0,0,1.457,1.457h24.067a1.457,1.457,0,0,0,0-2.914H121.926A1.48,1.48,0,0,0,120.469,58.925Zm19.755,13.112a14.812,14.812,0,0,1,2.1-2.914h-20.4a1.457,1.457,0,0,0,0,2.914Zm-18.3,5.827h16.666a15.964,15.964,0,0,1,.466-2.914H121.926a1.443,1.443,0,0,0-1.457,1.457,1.48,1.48,0,0,0,1.457,1.457Zm-.117,5.827h17.6a12.629,12.629,0,0,1-.758-2.914H121.809a1.457,1.457,0,0,0,0,2.914ZM147.8,39.753H127.578a3.3,3.3,0,0,0-1.049.175,2.3,2.3,0,0,0-.874.583l-10.607,10.2a2.661,2.661,0,0,0-.641.932,3.054,3.054,0,0,0-.175,1.049V83.575a6.143,6.143,0,0,0,6.177,6.177h23.543a13.272,13.272,0,0,1-2.8-2.914H120.41a3.258,3.258,0,0,1-3.263-3.263V53.564h5.186a6.218,6.218,0,0,0,6.177-6.177v-4.72h19.347a3.258,3.258,0,0,1,3.263,3.263V64.811a11.259,11.259,0,0,1,1.4-.058,13.2,13.2,0,0,1,1.515.058V45.929a6.268,6.268,0,0,0-6.235-6.177Z" transform="translate(1240.2 929.248)" fill="#0984e3"/>
    <path id="Path_93" data-name="Path 93" d="M399.126,321.083a10.843,10.843,0,1,1-10.843-10.843A10.822,10.822,0,0,1,399.126,321.083Zm-5.771.816a1.409,1.409,0,0,0-2.04,0l-1.574,1.457v-8.044a1.457,1.457,0,1,0-2.915,0v8.045l-1.516-1.516a1.443,1.443,0,1,0-2.041,2.04l4.022,3.906a1.365,1.365,0,0,0,.991.408,1.278,1.278,0,0,0,.991-.408l4.022-3.906A1.3,1.3,0,0,0,393.354,321.9Z" transform="translate(1004.4 687.074)" fill="#74b9ff"/>
  </g>
</svg>
