<svg xmlns="http://www.w3.org/2000/svg" width="50.009" height="50" viewBox="0 0 50.009 50">
  <g id="Step1" transform="translate(-244.001 -969)">
    <path id="Path_43" data-name="Path 43" d="M147.344,47.765a1.768,1.768,0,0,0-1.744,1.744V63.463l-9.721-11.117h0a6.6,6.6,0,0,0-9.628,0l-6.674,7.628-2.186-2.651h0a6.419,6.419,0,0,0-9.861,0L102.577,63.3V40.207a7.581,7.581,0,0,1,7.558-7.558H128.74a1.744,1.744,0,0,0,0-3.488H110.135A11.046,11.046,0,0,0,99.088,40.207V68.114a.2.2,0,0,0,0,.116,11.046,11.046,0,0,0,11.046,10.93h27.907a11.047,11.047,0,0,0,11.023-10.884V49.509a1.768,1.768,0,0,0-1.721-1.744Zm-18.582,6.884Z" transform="translate(144.922 939.84)" fill="#0984e3"/>
    <path id="Path_44" data-name="Path 44" d="M169.17,105.561a6.4,6.4,0,1,0,1.873-4.522A6.4,6.4,0,0,0,169.17,105.561Z" transform="translate(81.817 876.811)" fill="#74b9ff"/>
    <path id="Path_45" data-name="Path 45" d="M427.575,39.635h5.233v5.233a1.744,1.744,0,0,0,3.488,0V39.635h5.233a1.744,1.744,0,1,0,0-3.488H436.3V30.914a1.744,1.744,0,1,0-3.488,0v5.233h-5.233a1.744,1.744,0,0,0,0,3.488Z" transform="translate(-149.263 939.831)" fill="#74b9ff"/>
  </g>
</svg>
