<svg width="19" height="19" viewBox="0 0 19 19" fill="none" xmlns="http://www.w3.org/2000/svg">
<path d="M18.0001 8.735V5.165C18.0001 2.19 16.8101 1 13.8351 1H10.2651C7.2901 1 6.1001 2.19 6.1001 5.165V6.1H8.7351C11.7101 6.1 12.9001 7.29 12.9001 10.265V12.9H13.8351C16.8101 12.9 18.0001 11.71 18.0001 8.735Z" stroke="black" stroke-width="1.5" stroke-linecap="round" stroke-linejoin="round"/>
<path d="M12.9 13.8351V10.2651C12.9 7.2901 11.71 6.1001 8.735 6.1001H5.165C2.19 6.1001 1 7.2901 1 10.2651V13.8351C1 16.8101 2.19 18.0001 5.165 18.0001H8.735C11.71 18.0001 12.9 16.8101 12.9 13.8351Z" stroke="black" stroke-width="1.5" stroke-linecap="round" stroke-linejoin="round"/>
<path d="M4.46826 12.0501L6.12576 13.7076L9.43226 10.3926" stroke="black" stroke-width="1.5" stroke-linecap="round" stroke-linejoin="round"/>
</svg>
